<?xml version="1.0" encoding="UTF-8" standalone="no"?><svg xmlns="http://www.w3.org/2000/svg" xmlns:xlink="http://www.w3.org/1999/xlink" contentStyleType="text/css" height="2142px" preserveAspectRatio="none" style="width:1016px;height:2142px;background:#FFFFFF;" version="1.1" viewBox="0 0 1016 2142" width="1016px" zoomAndPan="magnify"><defs/><g><rect fill="none" height="26.4883" id="_title" style="stroke:none;stroke-width:1.0;" width="151" x="431.125" y="15"/><text fill="#000000" font-family="sans-serif" font-size="14" font-weight="bold" lengthAdjust="spacing" textLength="141" x="436.125" y="33.5352">Rule DQC 117.9574</text><ellipse cx="459" cy="57.4883" fill="#222222" rx="10" ry="10" style="stroke:#222222;stroke-width:1.0;"/><rect fill="#F1F1F1" height="34.1328" rx="12.5" ry="12.5" style="stroke:#181818;stroke-width:0.5;" width="347" x="285.5" y="141.6211"/><text fill="#000000" font-family="sans-serif" font-size="12" lengthAdjust="spacing" textLength="323" x="299.5" y="163.2227">Get a list of the dimensions on the statement hypercube</text><path d="M38,241.8887 L38,420.3047 A0,0 0 0 0 38,420.3047 L343,420.3047 A0,0 0 0 0 343,420.3047 L343,335.0967 L363,331.0967 L343,327.0967 L343,251.8887 L333,241.8887 L38,241.8887 A0,0 0 0 0 38,241.8887 " fill="#FEFFDD" style="stroke:#181818;stroke-width:0.5;"/><path d="M333,241.8887 L333,251.8887 L343,251.8887 L333,241.8887 " fill="#FEFFDD" style="stroke:#181818;stroke-width:0.5;"/><text fill="#000000" font-family="sans-serif" font-size="13" lengthAdjust="spacing" textLength="175" x="44" y="259.457">StatementClassOfStockAxis</text><text fill="#000000" font-family="sans-serif" font-size="13" lengthAdjust="spacing" textLength="135" x="44" y="274.7676">ProductOrServiceAxis</text><text fill="#000000" font-family="sans-serif" font-size="13" lengthAdjust="spacing" textLength="247" x="44" y="290.0781">PropertyPlantAndEquipmentByTypeAxis</text><text fill="#000000" font-family="sans-serif" font-size="13" lengthAdjust="spacing" textLength="148" x="44" y="305.3887">LongtermDebtTypeAxis</text><text fill="#000000" font-family="sans-serif" font-size="13" lengthAdjust="spacing" textLength="277" x="44" y="320.6992">RelatedPartyTransactionsByRelatedPartyAxis</text><text fill="#000000" font-family="sans-serif" font-size="13" lengthAdjust="spacing" textLength="207" x="44" y="336.0098">StatementBusinessSegmentsAxis</text><text fill="#000000" font-family="sans-serif" font-size="13" lengthAdjust="spacing" textLength="270" x="44" y="351.3203">LimitedPartnersCapitalAccountByClassAxis</text><text fill="#000000" font-family="sans-serif" font-size="13" lengthAdjust="spacing" textLength="264" x="44" y="366.6309">PartnerTypeOfPartnersCapitalAccountAxis</text><text fill="#000000" font-family="sans-serif" font-size="13" lengthAdjust="spacing" textLength="284" x="44" y="381.9414">FiniteLivedIntangibleAssetsByMajorClassAxis</text><text fill="#000000" font-family="sans-serif" font-size="13" lengthAdjust="spacing" textLength="153" x="44" y="397.252">FinancialInstrumentAxis</text><text fill="#000000" font-family="sans-serif" font-size="13" lengthAdjust="spacing" textLength="270" x="44" y="412.5625">InformationByCategoryOfDebtSecurityAxis'</text><rect fill="#F1F1F1" height="34.1328" rx="12.5" ry="12.5" style="stroke:#181818;stroke-width:0.5;" width="192" x="363" y="314.0303"/><text fill="#000000" font-family="sans-serif" font-size="12" lengthAdjust="spacing" textLength="172" x="373" y="335.6318">Read list of target dimensions</text><rect fill="#F1F1F1" height="62.3984" rx="12.5" ry="12.5" style="stroke:#181818;stroke-width:0.5;" width="198" x="360" y="488.7822"/><text fill="#000000" font-family="sans-serif" font-size="12" lengthAdjust="spacing" textLength="152" x="370" y="510.3838">Identify if facts in the cube</text><text fill="#000000" font-family="sans-serif" font-size="12" lengthAdjust="spacing" textLength="112" x="374" y="524.5166">have 2  dimensions</text><text fill="#000000" font-family="sans-serif" font-size="12" lengthAdjust="spacing" textLength="174" x="374" y="538.6494">including the target dimension</text><rect fill="#F1F1F1" height="34.1328" rx="12.5" ry="12.5" style="stroke:#181818;stroke-width:0.5;" width="245" x="336.5" y="619.6582"/><text fill="#000000" font-family="sans-serif" font-size="12" lengthAdjust="spacing" textLength="221" x="350.5" y="641.2598">Get Members of the Target Dimension</text><rect fill="#F1F1F1" height="34.1328" rx="12.5" ry="12.5" style="stroke:#181818;stroke-width:0.5;" width="369" x="274.5" y="729.9258"/><text fill="#000000" font-family="sans-serif" font-size="12" lengthAdjust="spacing" textLength="349" x="284.5" y="751.5273">Get facts in hypercube with the member of target Dimension</text><rect fill="#F1F1F1" height="34.1328" rx="12.5" ry="12.5" style="stroke:#181818;stroke-width:0.5;" width="255" x="331.5" y="784.0586"/><text fill="#000000" font-family="sans-serif" font-size="12" lengthAdjust="spacing" textLength="235" x="341.5" y="805.6602">Put all the facts with the member in a list</text><rect fill="#F1F1F1" height="48.2656" rx="12.5" ry="12.5" style="stroke:#181818;stroke-width:0.5;" width="232" x="343" y="838.1914"/><text fill="#000000" font-family="sans-serif" font-size="12" lengthAdjust="spacing" textLength="212" x="353" y="859.793">Get the other dimension from the list</text><text fill="#000000" font-family="sans-serif" font-size="12" lengthAdjust="spacing" textLength="149" x="353" y="873.9258">(not the target dimension)</text><rect fill="#F1F1F1" height="62.3984" rx="12.5" ry="12.5" style="stroke:#181818;stroke-width:0.5;" width="305" x="306.5" y="906.457"/><text fill="#000000" font-family="sans-serif" font-size="12" lengthAdjust="spacing" textLength="264" x="316.5" y="928.0586">Get facts from hypercube with both the target</text><text fill="#000000" font-family="sans-serif" font-size="12" lengthAdjust="spacing" textLength="281" x="316.5" y="942.1914">dimension and the dimension member identified</text><text fill="#000000" font-family="sans-serif" font-size="12" lengthAdjust="spacing" textLength="226" x="316.5" y="956.3242">above that have 3 dimension members</text><rect fill="none" height="403.6865" style="stroke:#000000;stroke-width:1.5;" width="645" x="76.25" y="978.8555"/><path d="M194.25,978.8555 L194.25,988.3438 L184.25,998.3438 L76.25,998.3438 " fill="none" style="stroke:#000000;stroke-width:1.5;"/><text fill="#000000" font-family="sans-serif" font-size="14" lengthAdjust="spacing" textLength="108" x="79.25" y="993.3906">SubTotal_Exists</text><rect fill="#F1F1F1" height="62.3984" rx="12.5" ry="12.5" style="stroke:#181818;stroke-width:0.5;" width="194" x="362" y="1015.3438"/><text fill="#000000" font-family="sans-serif" font-size="12" lengthAdjust="spacing" textLength="152" x="372" y="1036.9453">Identify if facts in the cube</text><text fill="#000000" font-family="sans-serif" font-size="12" lengthAdjust="spacing" textLength="158" x="372" y="1051.0781">have 3 or more dimensions</text><text fill="#000000" font-family="sans-serif" font-size="12" lengthAdjust="spacing" textLength="174" x="372" y="1065.2109">including the target dimension</text><polygon fill="#F1F1F1" points="381.5,1112.7422,536.5,1112.7422,548.5,1124.7422,536.5,1136.7422,381.5,1136.7422,369.5,1124.7422,381.5,1112.7422" style="stroke:#181818;stroke-width:0.5;"/><text fill="#000000" font-family="sans-serif" font-size="11" lengthAdjust="spacing" textLength="155" x="381.5" y="1128.8994">facts with 3 dimensions exist</text><text fill="#000000" font-family="sans-serif" font-size="11" lengthAdjust="spacing" textLength="18" x="351.5" y="1122.4219">yes</text><text fill="#000000" font-family="sans-serif" font-size="11" lengthAdjust="spacing" textLength="14" x="548.5" y="1122.4219">no</text><rect fill="#F1F1F1" height="62.3984" rx="12.5" ry="12.5" style="stroke:#181818;stroke-width:0.5;" width="248" x="176.25" y="1146.7422"/><text fill="#000000" font-family="sans-serif" font-size="12" lengthAdjust="spacing" textLength="228" x="186.25" y="1168.3438">Identify if there a subtotal for the target</text><text fill="#000000" font-family="sans-serif" font-size="12" lengthAdjust="spacing" textLength="148" x="202.25" y="1182.4766">dimension member which</text><text fill="#000000" font-family="sans-serif" font-size="12" lengthAdjust="spacing" textLength="118" x="202.25" y="1196.6094">has two dimensions?</text><polygon fill="#F1F1F1" points="244.75,1242.4092,355.75,1242.4092,367.75,1254.4092,355.75,1266.4092,244.75,1266.4092,232.75,1254.4092,244.75,1242.4092" style="stroke:#181818;stroke-width:0.5;"/><text fill="#000000" font-family="sans-serif" font-size="11" lengthAdjust="spacing" textLength="111" x="244.75" y="1258.5664">Does SubTotal Exist?</text><text fill="#000000" font-family="sans-serif" font-size="11" lengthAdjust="spacing" textLength="18" x="214.75" y="1252.0889">yes</text><text fill="#000000" font-family="sans-serif" font-size="11" lengthAdjust="spacing" textLength="14" x="367.75" y="1252.0889">no</text><rect fill="#F1F1F1" height="34.1328" rx="12.5" ry="12.5" style="stroke:#181818;stroke-width:0.5;" width="183" x="106.25" y="1276.4092"/><text fill="#000000" font-family="sans-serif" font-size="12" lengthAdjust="spacing" textLength="159" x="120.25" y="1298.0107">SubTotalExists is set to true</text><rect fill="#F1F1F1" height="34.1328" rx="12.5" ry="12.5" style="stroke:#181818;stroke-width:0.5;" width="187" x="309.25" y="1276.4092"/><text fill="#000000" font-family="sans-serif" font-size="12" lengthAdjust="spacing" textLength="163" x="323.25" y="1298.0107">SubTotalExists is set to false</text><polygon fill="#F1F1F1" points="300.25,1316.542,312.25,1328.542,300.25,1340.542,288.25,1328.542,300.25,1316.542" style="stroke:#181818;stroke-width:0.5;"/><rect fill="#F1F1F1" height="34.1328" rx="12.5" ry="12.5" style="stroke:#181818;stroke-width:0.5;" width="183" x="526.25" y="1146.7422"/><text fill="#000000" font-family="sans-serif" font-size="12" lengthAdjust="spacing" textLength="159" x="540.25" y="1168.3438">SubTotalExists is set to true</text><polygon fill="#F1F1F1" points="459,1346.542,471,1358.542,459,1370.542,447,1358.542,459,1346.542" style="stroke:#181818;stroke-width:0.5;"/><polygon fill="#F1F1F1" points="345.5,673.791,572.5,673.791,584.5,685.791,572.5,697.791,345.5,697.791,333.5,685.791,345.5,673.791" style="stroke:#181818;stroke-width:0.5;"/><text fill="#000000" font-family="sans-serif" font-size="11" lengthAdjust="spacing" textLength="18" x="463" y="708.4258">yes</text><text fill="#000000" font-family="sans-serif" font-size="11" lengthAdjust="spacing" textLength="227" x="345.5" y="689.9482">is there a member on the target dimension</text><text fill="#000000" font-family="sans-serif" font-size="11" lengthAdjust="spacing" textLength="14" x="319.5" y="683.4707">no</text><rect fill="#F1F1F1" height="48.2656" rx="12.5" ry="12.5" style="stroke:#181818;stroke-width:0.5;" width="69" x="731.25" y="983.4893"/><text fill="#000000" font-family="sans-serif" font-size="12" lengthAdjust="spacing" textLength="49" x="741.25" y="1005.0908">Get next</text><text fill="#000000" font-family="sans-serif" font-size="12" lengthAdjust="spacing" textLength="49" x="741.25" y="1019.2236">member</text><rect fill="#F1F1F1" height="48.2656" rx="12.5" ry="12.5" style="stroke:#181818;stroke-width:0.5;" width="202" x="358" y="1473.0195"/><text fill="#000000" font-family="sans-serif" font-size="12" lengthAdjust="spacing" textLength="182" x="368" y="1494.6211">Get the member facts using the</text><text fill="#000000" font-family="sans-serif" font-size="12" lengthAdjust="spacing" textLength="168" x="368" y="1508.7539">members and domain values</text><rect fill="#F1F1F1" height="34.1328" rx="12.5" ry="12.5" style="stroke:#181818;stroke-width:0.5;" width="150" x="384" y="1589.7627"/><text fill="#000000" font-family="sans-serif" font-size="12" lengthAdjust="spacing" textLength="130" x="394" y="1611.3643">Sum the member facts</text><rect fill="#F1F1F1" height="34.1328" rx="12.5" ry="12.5" style="stroke:#181818;stroke-width:0.5;" width="242" x="338" y="1643.8955"/><text fill="#000000" font-family="sans-serif" font-size="12" lengthAdjust="spacing" textLength="222" x="348" y="1665.4971">Get the minimum decimals of the facts</text><rect fill="#F1F1F1" height="34.1328" rx="12.5" ry="12.5" style="stroke:#181818;stroke-width:0.5;" width="213" x="352.5" y="1698.0283"/><text fill="#000000" font-family="sans-serif" font-size="12" lengthAdjust="spacing" textLength="193" x="362.5" y="1719.6299">Create message line for each fact</text><rect fill="#F1F1F1" height="76.5313" rx="12.5" ry="12.5" style="stroke:#181818;stroke-width:0.5;" width="281" x="318.5" y="1752.1611"/><text fill="#000000" font-family="sans-serif" font-size="12" lengthAdjust="spacing" textLength="210" x="328.5" y="1773.7627">Get the fact representing the total of</text><text fill="#000000" font-family="sans-serif" font-size="12" lengthAdjust="spacing" textLength="257" x="328.5" y="1787.8955">the target dimension of the concept with one</text><text fill="#000000" font-family="sans-serif" font-size="12" lengthAdjust="spacing" textLength="231" x="328.5" y="1802.0283">dimension with durations that match the</text><text fill="#000000" font-family="sans-serif" font-size="12" lengthAdjust="spacing" textLength="243" x="328.5" y="1816.1611">document period and all instant concepts.</text><polygon fill="#F1F1F1" points="407,1541.2852,511,1541.2852,523,1553.2852,511,1565.2852,407,1565.2852,395,1553.2852,407,1541.2852" style="stroke:#181818;stroke-width:0.5;"/><text fill="#000000" font-family="sans-serif" font-size="11" lengthAdjust="spacing" textLength="18" x="463" y="1575.9199">yes</text><text fill="#000000" font-family="sans-serif" font-size="11" lengthAdjust="spacing" textLength="104" x="407" y="1557.4424">Were facts present?</text><text fill="#000000" font-family="sans-serif" font-size="11" lengthAdjust="spacing" textLength="14" x="523" y="1550.9648">no</text><polygon fill="#F1F1F1" points="459,1848.6924,471,1860.6924,459,1872.6924,447,1860.6924,459,1848.6924" style="stroke:#181818;stroke-width:0.5;"/><polygon fill="#F1F1F1" points="354.5,1424.542,563.5,1424.542,575.5,1436.542,563.5,1448.542,354.5,1448.542,342.5,1436.542,354.5,1424.542" style="stroke:#181818;stroke-width:0.5;"/><text fill="#000000" font-family="sans-serif" font-size="11" lengthAdjust="spacing" textLength="18" x="463" y="1459.1768">yes</text><text fill="#000000" font-family="sans-serif" font-size="11" lengthAdjust="spacing" textLength="209" x="354.5" y="1440.6992">Does Subtotal for multi facts equal true</text><text fill="#000000" font-family="sans-serif" font-size="11" lengthAdjust="spacing" textLength="14" x="575.5" y="1434.2217">no</text><polygon fill="#F1F1F1" points="459,1892.6924,471,1904.6924,459,1916.6924,447,1904.6924,459,1892.6924" style="stroke:#181818;stroke-width:0.5;"/><polygon fill="#F1F1F1" points="298,571.1807,620,571.1807,632,583.1807,620,595.1807,298,595.1807,286,583.1807,298,571.1807" style="stroke:#181818;stroke-width:0.5;"/><text fill="#000000" font-family="sans-serif" font-size="11" lengthAdjust="spacing" textLength="18" x="463" y="605.8154">yes</text><text fill="#000000" font-family="sans-serif" font-size="11" lengthAdjust="spacing" textLength="322" x="298" y="587.3379">facts with 2 dimensions including the target dimension exist</text><text fill="#000000" font-family="sans-serif" font-size="11" lengthAdjust="spacing" textLength="14" x="632" y="580.8604">no</text><polygon fill="#F1F1F1" points="459,1936.6924,471,1948.6924,459,1960.6924,447,1948.6924,459,1936.6924" style="stroke:#181818;stroke-width:0.5;"/><polygon fill="#F1F1F1" points="317.5,440.3047,600.5,440.3047,612.5,452.3047,600.5,464.3047,317.5,464.3047,305.5,452.3047,317.5,440.3047" style="stroke:#181818;stroke-width:0.5;"/><text fill="#000000" font-family="sans-serif" font-size="11" lengthAdjust="spacing" textLength="18" x="463" y="474.9395">yes</text><text fill="#000000" font-family="sans-serif" font-size="11" lengthAdjust="spacing" textLength="283" x="317.5" y="456.4619">Is the dimension a target dimension to be calculated?</text><text fill="#000000" font-family="sans-serif" font-size="11" lengthAdjust="spacing" textLength="14" x="612.5" y="449.9844">no</text><polygon fill="#F1F1F1" points="459,1980.6924,471,1992.6924,459,2004.6924,447,1992.6924,459,1980.6924" style="stroke:#181818;stroke-width:0.5;"/><polygon fill="#F1F1F1" points="318,195.7539,600,195.7539,612,207.7539,600,219.7539,318,219.7539,306,207.7539,318,195.7539" style="stroke:#181818;stroke-width:0.5;"/><text fill="#000000" font-family="sans-serif" font-size="11" lengthAdjust="spacing" textLength="18" x="463" y="230.3887">yes</text><text fill="#000000" font-family="sans-serif" font-size="11" lengthAdjust="spacing" textLength="282" x="318" y="211.9111">Is there a dmension left to process on the hypercube</text><text fill="#000000" font-family="sans-serif" font-size="11" lengthAdjust="spacing" textLength="14" x="292" y="205.4336">no</text><rect fill="#F1F1F1" height="34.1328" rx="12.5" ry="12.5" style="stroke:#181818;stroke-width:0.5;" width="136" x="842.25" y="1080.1572"/><text fill="#000000" font-family="sans-serif" font-size="12" lengthAdjust="spacing" textLength="112" x="856.25" y="1101.7588">Get next dimension</text><rect fill="#F1F1F1" height="34.1328" rx="12.5" ry="12.5" style="stroke:#181818;stroke-width:0.5;" width="266" x="326" y="87.4883"/><text fill="#000000" font-family="sans-serif" font-size="12" lengthAdjust="spacing" textLength="242" x="340" y="109.0898">Get next statement hypercube in the filing</text><polygon fill="#F1F1F1" points="355,2046.6924,563,2046.6924,575,2058.6924,563,2070.6924,355,2070.6924,343,2058.6924,355,2046.6924" style="stroke:#181818;stroke-width:0.5;"/><text fill="#000000" font-family="sans-serif" font-size="11" lengthAdjust="spacing" textLength="208" x="355" y="2062.8496">Is there another hypercube in the filing</text><text fill="#000000" font-family="sans-serif" font-size="11" lengthAdjust="spacing" textLength="18" x="575" y="2056.3721">yes</text><ellipse cx="459" cy="2121.9678" fill="none" rx="10" ry="10" style="stroke:#222222;stroke-width:1.5;"/><line style="stroke:#222222;stroke-width:2.5;" x1="452.8128" x2="465.1872" y1="2115.7806" y2="2128.155"/><line style="stroke:#222222;stroke-width:2.5;" x1="465.1872" x2="452.8128" y1="2115.7806" y2="2128.155"/><line style="stroke:#181818;stroke-width:1.0;" x1="459" x2="459" y1="764.0586" y2="784.0586"/><polygon fill="#181818" points="455,774.0586,459,784.0586,463,774.0586,459,778.0586" style="stroke:#181818;stroke-width:1.0;"/><line style="stroke:#181818;stroke-width:1.0;" x1="459" x2="459" y1="818.1914" y2="838.1914"/><polygon fill="#181818" points="455,828.1914,459,838.1914,463,828.1914,459,832.1914" style="stroke:#181818;stroke-width:1.0;"/><line style="stroke:#181818;stroke-width:1.0;" x1="459" x2="459" y1="886.457" y2="906.457"/><polygon fill="#181818" points="455,896.457,459,906.457,463,896.457,459,900.457" style="stroke:#181818;stroke-width:1.0;"/><line style="stroke:#181818;stroke-width:1.0;" x1="232.75" x2="197.75" y1="1254.4092" y2="1254.4092"/><line style="stroke:#181818;stroke-width:1.0;" x1="197.75" x2="197.75" y1="1254.4092" y2="1276.4092"/><polygon fill="#181818" points="193.75,1266.4092,197.75,1276.4092,201.75,1266.4092,197.75,1270.4092" style="stroke:#181818;stroke-width:1.0;"/><line style="stroke:#181818;stroke-width:1.0;" x1="367.75" x2="402.75" y1="1254.4092" y2="1254.4092"/><line style="stroke:#181818;stroke-width:1.0;" x1="402.75" x2="402.75" y1="1254.4092" y2="1276.4092"/><polygon fill="#181818" points="398.75,1266.4092,402.75,1276.4092,406.75,1266.4092,402.75,1270.4092" style="stroke:#181818;stroke-width:1.0;"/><line style="stroke:#181818;stroke-width:1.0;" x1="197.75" x2="197.75" y1="1310.542" y2="1328.542"/><line style="stroke:#181818;stroke-width:1.0;" x1="197.75" x2="288.25" y1="1328.542" y2="1328.542"/><polygon fill="#181818" points="278.25,1324.542,288.25,1328.542,278.25,1332.542,282.25,1328.542" style="stroke:#181818;stroke-width:1.0;"/><line style="stroke:#181818;stroke-width:1.0;" x1="402.75" x2="402.75" y1="1310.542" y2="1328.542"/><line style="stroke:#181818;stroke-width:1.0;" x1="402.75" x2="312.25" y1="1328.542" y2="1328.542"/><polygon fill="#181818" points="322.25,1324.542,312.25,1328.542,322.25,1332.542,318.25,1328.542" style="stroke:#181818;stroke-width:1.0;"/><line style="stroke:#181818;stroke-width:1.0;" x1="300.25" x2="300.25" y1="1209.1406" y2="1242.4092"/><polygon fill="#181818" points="296.25,1232.4092,300.25,1242.4092,304.25,1232.4092,300.25,1236.4092" style="stroke:#181818;stroke-width:1.0;"/><line style="stroke:#181818;stroke-width:1.0;" x1="369.5" x2="300.25" y1="1124.7422" y2="1124.7422"/><line style="stroke:#181818;stroke-width:1.0;" x1="300.25" x2="300.25" y1="1124.7422" y2="1146.7422"/><polygon fill="#181818" points="296.25,1136.7422,300.25,1146.7422,304.25,1136.7422,300.25,1140.7422" style="stroke:#181818;stroke-width:1.0;"/><line style="stroke:#181818;stroke-width:1.0;" x1="548.5" x2="617.75" y1="1124.7422" y2="1124.7422"/><line style="stroke:#181818;stroke-width:1.0;" x1="617.75" x2="617.75" y1="1124.7422" y2="1146.7422"/><polygon fill="#181818" points="613.75,1136.7422,617.75,1146.7422,621.75,1136.7422,617.75,1140.7422" style="stroke:#181818;stroke-width:1.0;"/><line style="stroke:#181818;stroke-width:1.0;" x1="300.25" x2="300.25" y1="1340.542" y2="1358.542"/><line style="stroke:#181818;stroke-width:1.0;" x1="300.25" x2="447" y1="1358.542" y2="1358.542"/><polygon fill="#181818" points="437,1354.542,447,1358.542,437,1362.542,441,1358.542" style="stroke:#181818;stroke-width:1.0;"/><line style="stroke:#181818;stroke-width:1.0;" x1="617.75" x2="617.75" y1="1180.875" y2="1358.542"/><line style="stroke:#181818;stroke-width:1.0;" x1="617.75" x2="471" y1="1358.542" y2="1358.542"/><polygon fill="#181818" points="481,1354.542,471,1358.542,481,1362.542,477,1358.542" style="stroke:#181818;stroke-width:1.0;"/><line style="stroke:#181818;stroke-width:1.0;" x1="459" x2="459" y1="1077.7422" y2="1112.7422"/><polygon fill="#181818" points="455,1102.7422,459,1112.7422,463,1102.7422,459,1106.7422" style="stroke:#181818;stroke-width:1.0;"/><line style="stroke:#181818;stroke-width:1.0;" x1="459" x2="459" y1="968.8555" y2="1015.3438"/><polygon fill="#181818" points="455,1005.3438,459,1015.3438,463,1005.3438,459,1009.3438" style="stroke:#181818;stroke-width:1.0;"/><line style="stroke:#181818;stroke-width:1.0;" x1="459" x2="459" y1="697.791" y2="729.9258"/><polygon fill="#181818" points="455,719.9258,459,729.9258,463,719.9258,459,723.9258" style="stroke:#181818;stroke-width:1.0;"/><line style="stroke:#181818;stroke-width:1.0;" x1="459" x2="459" y1="1370.542" y2="1392.542"/><line style="stroke:#181818;stroke-width:1.0;" x1="459" x2="765.75" y1="1392.542" y2="1392.542"/><line style="stroke:#181818;stroke-width:1.0;" x1="765.75" x2="765.75" y1="1031.7549" y2="1392.542"/><polygon fill="#181818" points="761.75,1041.7549,765.75,1031.7549,769.75,1041.7549,765.75,1037.7549" style="stroke:#181818;stroke-width:1.0;"/><line style="stroke:#181818;stroke-width:1.0;" x1="765.75" x2="765.75" y1="685.791" y2="983.4893"/><line style="stroke:#181818;stroke-width:1.0;" x1="765.75" x2="584.5" y1="685.791" y2="685.791"/><polygon fill="#181818" points="594.5,681.791,584.5,685.791,594.5,689.791,590.5,685.791" style="stroke:#181818;stroke-width:1.0;"/><line style="stroke:#181818;stroke-width:1.0;" x1="333.5" x2="64.25" y1="685.791" y2="685.791"/><polygon fill="#181818" points="60.25,1003.6221,64.25,1013.6221,68.25,1003.6221,64.25,1007.6221" style="stroke:#181818;stroke-width:1.0;"/><line style="stroke:#181818;stroke-width:1.0;" x1="64.25" x2="64.25" y1="685.791" y2="1404.542"/><line style="stroke:#181818;stroke-width:1.0;" x1="64.25" x2="459" y1="1404.542" y2="1404.542"/><line style="stroke:#181818;stroke-width:1.0;" x1="459" x2="459" y1="1404.542" y2="1424.542"/><polygon fill="#181818" points="455,1414.542,459,1424.542,463,1414.542,459,1418.542" style="stroke:#181818;stroke-width:1.0;"/><line style="stroke:#181818;stroke-width:1.0;" x1="459" x2="459" y1="653.791" y2="673.791"/><polygon fill="#181818" points="455,663.791,459,673.791,463,663.791,459,667.791" style="stroke:#181818;stroke-width:1.0;"/><line style="stroke:#181818;stroke-width:1.0;" x1="459" x2="459" y1="1623.8955" y2="1643.8955"/><polygon fill="#181818" points="455,1633.8955,459,1643.8955,463,1633.8955,459,1637.8955" style="stroke:#181818;stroke-width:1.0;"/><line style="stroke:#181818;stroke-width:1.0;" x1="459" x2="459" y1="1678.0283" y2="1698.0283"/><polygon fill="#181818" points="455,1688.0283,459,1698.0283,463,1688.0283,459,1692.0283" style="stroke:#181818;stroke-width:1.0;"/><line style="stroke:#181818;stroke-width:1.0;" x1="459" x2="459" y1="1732.1611" y2="1752.1611"/><polygon fill="#181818" points="455,1742.1611,459,1752.1611,463,1742.1611,459,1746.1611" style="stroke:#181818;stroke-width:1.0;"/><line style="stroke:#181818;stroke-width:1.0;" x1="459" x2="459" y1="1565.2852" y2="1589.7627"/><polygon fill="#181818" points="455,1579.7627,459,1589.7627,463,1579.7627,459,1583.7627" style="stroke:#181818;stroke-width:1.0;"/><line style="stroke:#181818;stroke-width:1.0;" x1="523" x2="609.5" y1="1553.2852" y2="1553.2852"/><polygon fill="#181818" points="605.5,1691.7275,609.5,1701.7275,613.5,1691.7275,609.5,1695.7275" style="stroke:#181818;stroke-width:1.0;"/><line style="stroke:#181818;stroke-width:1.0;" x1="609.5" x2="609.5" y1="1553.2852" y2="1860.6924"/><line style="stroke:#181818;stroke-width:1.0;" x1="609.5" x2="471" y1="1860.6924" y2="1860.6924"/><polygon fill="#181818" points="481,1856.6924,471,1860.6924,481,1864.6924,477,1860.6924" style="stroke:#181818;stroke-width:1.0;"/><line style="stroke:#181818;stroke-width:1.0;" x1="459" x2="459" y1="1828.6924" y2="1848.6924"/><polygon fill="#181818" points="455,1838.6924,459,1848.6924,463,1838.6924,459,1842.6924" style="stroke:#181818;stroke-width:1.0;"/><line style="stroke:#181818;stroke-width:1.0;" x1="459" x2="459" y1="1521.2852" y2="1541.2852"/><polygon fill="#181818" points="455,1531.2852,459,1541.2852,463,1531.2852,459,1535.2852" style="stroke:#181818;stroke-width:1.0;"/><line style="stroke:#181818;stroke-width:1.0;" x1="459" x2="459" y1="1448.542" y2="1473.0195"/><polygon fill="#181818" points="455,1463.0195,459,1473.0195,463,1463.0195,459,1467.0195" style="stroke:#181818;stroke-width:1.0;"/><line style="stroke:#181818;stroke-width:1.0;" x1="575.5" x2="631.5" y1="1436.542" y2="1436.542"/><polygon fill="#181818" points="627.5,1665.0947,631.5,1675.0947,635.5,1665.0947,631.5,1669.0947" style="stroke:#181818;stroke-width:1.0;"/><line style="stroke:#181818;stroke-width:1.0;" x1="631.5" x2="631.5" y1="1436.542" y2="1904.6924"/><line style="stroke:#181818;stroke-width:1.0;" x1="631.5" x2="471" y1="1904.6924" y2="1904.6924"/><polygon fill="#181818" points="481,1900.6924,471,1904.6924,481,1908.6924,477,1904.6924" style="stroke:#181818;stroke-width:1.0;"/><line style="stroke:#181818;stroke-width:1.0;" x1="459" x2="459" y1="1872.6924" y2="1892.6924"/><polygon fill="#181818" points="455,1882.6924,459,1892.6924,463,1882.6924,459,1886.6924" style="stroke:#181818;stroke-width:1.0;"/><line style="stroke:#181818;stroke-width:1.0;" x1="459" x2="459" y1="595.1807" y2="619.6582"/><polygon fill="#181818" points="455,609.6582,459,619.6582,463,609.6582,459,613.6582" style="stroke:#181818;stroke-width:1.0;"/><line style="stroke:#181818;stroke-width:1.0;" x1="632" x2="810.25" y1="583.1807" y2="583.1807"/><polygon fill="#181818" points="806.25,1259.377,810.25,1269.377,814.25,1259.377,810.25,1263.377" style="stroke:#181818;stroke-width:1.0;"/><line style="stroke:#181818;stroke-width:1.0;" x1="810.25" x2="810.25" y1="583.1807" y2="1948.6924"/><line style="stroke:#181818;stroke-width:1.0;" x1="810.25" x2="471" y1="1948.6924" y2="1948.6924"/><polygon fill="#181818" points="481,1944.6924,471,1948.6924,481,1952.6924,477,1948.6924" style="stroke:#181818;stroke-width:1.0;"/><line style="stroke:#181818;stroke-width:1.0;" x1="459" x2="459" y1="1916.6924" y2="1936.6924"/><polygon fill="#181818" points="455,1926.6924,459,1936.6924,463,1926.6924,459,1930.6924" style="stroke:#181818;stroke-width:1.0;"/><line style="stroke:#181818;stroke-width:1.0;" x1="459" x2="459" y1="551.1807" y2="571.1807"/><polygon fill="#181818" points="455,561.1807,459,571.1807,463,561.1807,459,565.1807" style="stroke:#181818;stroke-width:1.0;"/><line style="stroke:#181818;stroke-width:1.0;" x1="459" x2="459" y1="464.3047" y2="488.7822"/><polygon fill="#181818" points="455,478.7822,459,488.7822,463,478.7822,459,482.7822" style="stroke:#181818;stroke-width:1.0;"/><line style="stroke:#181818;stroke-width:1.0;" x1="612.5" x2="828.25" y1="452.3047" y2="452.3047"/><polygon fill="#181818" points="824.25,1212.4092,828.25,1222.4092,832.25,1212.4092,828.25,1216.4092" style="stroke:#181818;stroke-width:1.0;"/><line style="stroke:#181818;stroke-width:1.0;" x1="828.25" x2="828.25" y1="452.3047" y2="1992.6924"/><line style="stroke:#181818;stroke-width:1.0;" x1="828.25" x2="471" y1="1992.6924" y2="1992.6924"/><polygon fill="#181818" points="481,1988.6924,471,1992.6924,481,1996.6924,477,1992.6924" style="stroke:#181818;stroke-width:1.0;"/><line style="stroke:#181818;stroke-width:1.0;" x1="459" x2="459" y1="1960.6924" y2="1980.6924"/><polygon fill="#181818" points="455,1970.6924,459,1980.6924,463,1970.6924,459,1974.6924" style="stroke:#181818;stroke-width:1.0;"/><line style="stroke:#181818;stroke-width:1.0;" x1="459" x2="459" y1="348.1631" y2="440.3047"/><polygon fill="#181818" points="455,430.3047,459,440.3047,463,430.3047,459,434.3047" style="stroke:#181818;stroke-width:1.0;"/><line style="stroke:#181818;stroke-width:1.0;" x1="459" x2="459" y1="219.7539" y2="314.0303"/><polygon fill="#181818" points="455,304.0303,459,314.0303,463,304.0303,459,308.0303" style="stroke:#181818;stroke-width:1.0;"/><line style="stroke:#181818;stroke-width:1.0;" x1="459" x2="459" y1="2004.6924" y2="2014.6924"/><line style="stroke:#181818;stroke-width:1.0;" x1="459" x2="910.25" y1="2014.6924" y2="2014.6924"/><line style="stroke:#181818;stroke-width:1.0;" x1="910.25" x2="910.25" y1="1114.29" y2="2014.6924"/><polygon fill="#181818" points="906.25,1124.29,910.25,1114.29,914.25,1124.29,910.25,1120.29" style="stroke:#181818;stroke-width:1.0;"/><line style="stroke:#181818;stroke-width:1.0;" x1="910.25" x2="910.25" y1="207.7539" y2="1080.1572"/><line style="stroke:#181818;stroke-width:1.0;" x1="910.25" x2="612" y1="207.7539" y2="207.7539"/><polygon fill="#181818" points="622,203.7539,612,207.7539,622,211.7539,618,207.7539" style="stroke:#181818;stroke-width:1.0;"/><line style="stroke:#181818;stroke-width:1.0;" x1="306" x2="24" y1="207.7539" y2="207.7539"/><polygon fill="#181818" points="20,1093.2236,24,1103.2236,28,1093.2236,24,1097.2236" style="stroke:#181818;stroke-width:1.0;"/><line style="stroke:#181818;stroke-width:1.0;" x1="24" x2="24" y1="207.7539" y2="2026.6924"/><line style="stroke:#181818;stroke-width:1.0;" x1="24" x2="459" y1="2026.6924" y2="2026.6924"/><line style="stroke:#181818;stroke-width:1.0;" x1="459" x2="459" y1="2026.6924" y2="2046.6924"/><polygon fill="#181818" points="455,2036.6924,459,2046.6924,463,2036.6924,459,2040.6924" style="stroke:#181818;stroke-width:1.0;"/><line style="stroke:#181818;stroke-width:1.0;" x1="459" x2="459" y1="175.7539" y2="195.7539"/><polygon fill="#181818" points="455,185.7539,459,195.7539,463,185.7539,459,189.7539" style="stroke:#181818;stroke-width:1.0;"/><line style="stroke:#181818;stroke-width:1.0;" x1="459" x2="459" y1="121.6211" y2="141.6211"/><polygon fill="#181818" points="455,131.6211,459,141.6211,463,131.6211,459,135.6211" style="stroke:#181818;stroke-width:1.0;"/><line style="stroke:#181818;stroke-width:1.0;" x1="575" x2="990.25" y1="2058.6924" y2="2058.6924"/><polygon fill="#181818" points="986.25,1070.124,990.25,1060.124,994.25,1070.124,990.25,1066.124" style="stroke:#181818;stroke-width:1.0;"/><line style="stroke:#181818;stroke-width:1.0;" x1="990.25" x2="990.25" y1="104.5547" y2="2058.6924"/><line style="stroke:#181818;stroke-width:1.0;" x1="990.25" x2="592" y1="104.5547" y2="104.5547"/><polygon fill="#181818" points="602,100.5547,592,104.5547,602,108.5547,598,104.5547" style="stroke:#181818;stroke-width:1.0;"/><line style="stroke:#181818;stroke-width:1.0;" x1="459" x2="459" y1="67.4883" y2="87.4883"/><polygon fill="#181818" points="455,77.4883,459,87.4883,463,77.4883,459,81.4883" style="stroke:#181818;stroke-width:1.0;"/><line style="stroke:#181818;stroke-width:1.0;" x1="459" x2="459" y1="2070.6924" y2="2111.9678"/><polygon fill="#181818" points="455,2101.9678,459,2111.9678,463,2101.9678,459,2105.9678" style="stroke:#181818;stroke-width:1.0;"/><text fill="#000000" font-family="sans-serif" font-size="11" lengthAdjust="spacing" textLength="14" x="463" y="2092.1475">no</text><!--MD5=[48f06acd59db932ebf0619883762fff2]
@startuml rule_0117_9574
title "Rule DQC 117.9574"
!pragma useVerticalIf on
start

repeat : Get next statement hypercube in the filing;
 
 : Get a list of the dimensions on the statement hypercube;
while (Is there a dmension left to process on the hypercube) is (yes)

    :Read list of target dimensions;
    note left
    StatementClassOfStockAxis
    ProductOrServiceAxis
    PropertyPlantAndEquipmentByTypeAxis
    LongtermDebtTypeAxis
    RelatedPartyTransactionsByRelatedPartyAxis
    StatementBusinessSegmentsAxis
    LimitedPartnersCapitalAccountByClassAxis
    PartnerTypeOfPartnersCapitalAccountAxis
    FiniteLivedIntangibleAssetsByMajorClassAxis
    FinancialInstrumentAxis
    InformationByCategoryOfDebtSecurityAxis'
    end note
 if (Is the dimension a target dimension to be calculated?) then (yes)
    
    
     :Identify if facts in the cube
      have 2  dimensions 
      including the target dimension;
      if (facts with 2 dimensions including the target dimension exist) then (yes)
       : Get Members of the Target Dimension;
       while (is there a member on the target dimension) is (yes)
            :Get facts in hypercube with the member of target Dimension;
            :Put all the facts with the member in a list;
            :Get the other dimension from the list
            (not the target dimension);
            :Get facts from hypercube with both the target
            dimension and the dimension member identified 
            above that have 3 dimension members;
             group SubTotal_Exists
                :Identify if facts in the cube
                have 3 or more dimensions 
                including the target dimension;
                if (facts with 3 dimensions exist) then (yes)
                
                :Identify if there a subtotal for the target 
                    dimension member which 
                    has two dimensions?;
                        if (Does SubTotal Exist?) then (yes)
                            : SubTotalExists is set to true;
                        else (no)
                            : SubTotalExists is set to false;
                            endif
                else (no)
                    : SubTotalExists is set to true;
                endif
    
            end group
        backward: Get next 
        member;
       end while (no)
    
   
     if (Does Subtotal for multi facts equal true) then (yes)
        :Get the member facts using the 
        members and domain values;
            if (Were facts present?) then (yes)
                :Sum the member facts;
                :Get the minimum decimals of the facts;
                :Create message line for each fact;
                :Get the fact representing the total of 
                the target dimension of the concept with one 
                dimension with durations that match the 
                document period and all instant concepts.;
                
             else (no)
            endif
        else (no)
            endif
    else (no)
        
    endif
     
 else (no)
    endif 
    backward: Get next dimension;
endwhile  (no)
    repeat while (Is there another hypercube in the filing) is (yes)
    ->no;
    
end

@enduml

PlantUML version 1.2022.7(Mon Aug 22 13:01:30 EDT 2022)
(GPL source distribution)
Java Runtime: OpenJDK Runtime Environment
JVM: OpenJDK 64-Bit Server VM
Default Encoding: UTF-8
Language: en
Country: US
--></g></svg>