<?xml version="1.0" encoding="UTF-8" standalone="no"?><svg xmlns="http://www.w3.org/2000/svg" xmlns:xlink="http://www.w3.org/1999/xlink" contentStyleType="text/css" height="825px" preserveAspectRatio="none" style="width:1752px;height:825px;background:#FFFFFF;" version="1.1" viewBox="0 0 1752 825" width="1752px" zoomAndPan="magnify"><defs/><g><rect fill="none" height="26.4883" id="_title" style="stroke:none;stroke-width:1.0;" width="265" x="742.25" y="15"/><text fill="#000000" font-family="sans-serif" font-size="14" font-weight="bold" lengthAdjust="spacing" textLength="255" x="747.25" y="33.5352">Rule DQC 0009 Shares Comparison</text><ellipse cx="870.5" cy="57.4883" fill="#222222" rx="10" ry="10" style="stroke:#222222;stroke-width:1.0;"/><line style="stroke:#181818;stroke-width:1.5;" x1="137" x2="1576.5" y1="141.6211" y2="141.6211"/><rect fill="#F1F1F1" height="34.1328" rx="12.5" ry="12.5" style="stroke:#181818;stroke-width:0.5;" width="124" x="75" y="215.7539"/><text fill="#000000" font-family="sans-serif" font-size="12" lengthAdjust="spacing" textLength="104" x="85" y="237.3555">Run rule 0009.15</text><rect fill="#F1F1F1" height="34.1328" rx="12.5" ry="12.5" style="stroke:#181818;stroke-width:0.5;" width="232" x="21" y="284.8867"/><text fill="#000000" font-family="sans-serif" font-size="12" lengthAdjust="spacing" textLength="212" x="31" y="306.4883">Get CommonStockSharesOutstanding</text><rect fill="#F1F1F1" height="34.1328" rx="12.5" ry="12.5" style="stroke:#181818;stroke-width:0.5;" width="226" x="24" y="346.4521"/><text fill="#000000" font-family="sans-serif" font-size="12" lengthAdjust="spacing" textLength="206" x="34" y="368.0537">Get CommonStockSharesAuthorized</text><rect fill="#FF6347" height="34.1328" rx="12.5" ry="12.5" style="stroke:#181818;stroke-width:0.5;" width="82" x="96" y="506.8828"/><text fill="#000000" font-family="sans-serif" font-size="12" lengthAdjust="spacing" textLength="62" x="106" y="528.4844">Show error</text><polygon fill="#F1F1F1" points="32,456.4951,242,456.4951,254,469.4502,242,482.4053,32,482.4053,20,469.4502,32,456.4951" style="stroke:#181818;stroke-width:0.5;"/><text fill="#000000" font-family="sans-serif" font-size="11" lengthAdjust="spacing" textLength="18" x="141" y="493.04">yes</text><text fill="#000000" font-family="sans-serif" font-size="11" lengthAdjust="spacing" textLength="193" x="32" y="467.1299">CommonStockSharesOutstanding &gt;</text><text fill="#000000" font-family="sans-serif" font-size="11" lengthAdjust="spacing" textLength="174" x="68" y="480.085">CommonStockSharesAuthorized</text><text fill="#000000" font-family="sans-serif" font-size="11" lengthAdjust="spacing" textLength="14" x="254" y="467.1299">no</text><polygon fill="#F1F1F1" points="137,565.4932,149,577.4932,137,589.4932,125,577.4932,137,565.4932" style="stroke:#181818;stroke-width:0.5;"/><polygon fill="#F1F1F1" points="70.5,408.0176,203.5,408.0176,215.5,420.0176,203.5,432.0176,70.5,432.0176,58.5,420.0176,70.5,408.0176" style="stroke:#181818;stroke-width:0.5;"/><text fill="#000000" font-family="sans-serif" font-size="11" lengthAdjust="spacing" textLength="18" x="141" y="442.6523">yes</text><text fill="#000000" font-family="sans-serif" font-size="11" lengthAdjust="spacing" textLength="133" x="70.5" y="424.1748">Are both values present?</text><text fill="#000000" font-family="sans-serif" font-size="11" lengthAdjust="spacing" textLength="14" x="215.5" y="417.6973">no</text><polygon fill="#F1F1F1" points="137,613.9707,149,625.9707,137,637.9707,125,625.9707,137,613.9707" style="stroke:#181818;stroke-width:0.5;"/><rect fill="#F1F1F1" height="34.1328" rx="12.5" ry="12.5" style="stroke:#181818;stroke-width:0.5;" width="124" x="346" y="215.7539"/><text fill="#000000" font-family="sans-serif" font-size="12" lengthAdjust="spacing" textLength="104" x="356" y="237.3555">Run rule 0009.19</text><rect fill="#F1F1F1" height="34.1328" rx="12.5" ry="12.5" style="stroke:#181818;stroke-width:0.5;" width="236" x="290" y="284.8867"/><text fill="#000000" font-family="sans-serif" font-size="12" lengthAdjust="spacing" textLength="216" x="300" y="306.4883">Get PreferredStockSharesOutstanding</text><rect fill="#F1F1F1" height="34.1328" rx="12.5" ry="12.5" style="stroke:#181818;stroke-width:0.5;" width="226" x="295" y="346.4521"/><text fill="#000000" font-family="sans-serif" font-size="12" lengthAdjust="spacing" textLength="206" x="305" y="368.0537">Get CommonStockSharesAuthorized</text><rect fill="#FF6347" height="34.1328" rx="12.5" ry="12.5" style="stroke:#181818;stroke-width:0.5;" width="82" x="367" y="506.8828"/><text fill="#000000" font-family="sans-serif" font-size="12" lengthAdjust="spacing" textLength="62" x="377" y="528.4844">Show error</text><polygon fill="#F1F1F1" points="309,456.4951,507,456.4951,519,469.4502,507,482.4053,309,482.4053,297,469.4502,309,456.4951" style="stroke:#181818;stroke-width:0.5;"/><text fill="#000000" font-family="sans-serif" font-size="11" lengthAdjust="spacing" textLength="18" x="412" y="493.04">yes</text><text fill="#000000" font-family="sans-serif" font-size="11" lengthAdjust="spacing" textLength="194" x="309" y="467.1299">PreferredStockSharesOutstanding &gt;</text><text fill="#000000" font-family="sans-serif" font-size="11" lengthAdjust="spacing" textLength="150" x="357" y="480.085">PreferredStockSharesIssued</text><text fill="#000000" font-family="sans-serif" font-size="11" lengthAdjust="spacing" textLength="14" x="519" y="467.1299">no</text><polygon fill="#F1F1F1" points="408,565.4932,420,577.4932,408,589.4932,396,577.4932,408,565.4932" style="stroke:#181818;stroke-width:0.5;"/><polygon fill="#F1F1F1" points="341.5,408.0176,474.5,408.0176,486.5,420.0176,474.5,432.0176,341.5,432.0176,329.5,420.0176,341.5,408.0176" style="stroke:#181818;stroke-width:0.5;"/><text fill="#000000" font-family="sans-serif" font-size="11" lengthAdjust="spacing" textLength="18" x="412" y="442.6523">yes</text><text fill="#000000" font-family="sans-serif" font-size="11" lengthAdjust="spacing" textLength="133" x="341.5" y="424.1748">Are both values present?</text><text fill="#000000" font-family="sans-serif" font-size="11" lengthAdjust="spacing" textLength="14" x="486.5" y="417.6973">no</text><polygon fill="#F1F1F1" points="408,613.9707,420,625.9707,408,637.9707,396,625.9707,408,613.9707" style="stroke:#181818;stroke-width:0.5;"/><rect fill="#F1F1F1" height="34.1328" rx="12.5" ry="12.5" style="stroke:#181818;stroke-width:0.5;" width="124" x="649.5" y="161.6211"/><text fill="#000000" font-family="sans-serif" font-size="12" lengthAdjust="spacing" textLength="104" x="659.5" y="183.2227">Run rule 0009.21</text><rect fill="#F1F1F1" height="34.1328" rx="12.5" ry="12.5" style="stroke:#181818;stroke-width:0.5;" width="200" x="611.5" y="292.3193"/><text fill="#000000" font-family="sans-serif" font-size="12" lengthAdjust="spacing" textLength="180" x="621.5" y="313.9209">Get CommonStockSharesIssued</text><rect fill="#F1F1F1" height="34.1328" rx="12.5" ry="12.5" style="stroke:#181818;stroke-width:0.5;" width="226" x="598.5" y="353.8848"/><text fill="#000000" font-family="sans-serif" font-size="12" lengthAdjust="spacing" textLength="206" x="608.5" y="375.4863">Get CommonStockSharesAuthorized</text><rect fill="#FF6347" height="34.1328" rx="12.5" ry="12.5" style="stroke:#181818;stroke-width:0.5;" width="82" x="670.5" y="514.3154"/><text fill="#000000" font-family="sans-serif" font-size="12" lengthAdjust="spacing" textLength="62" x="680.5" y="535.917">Show error</text><polygon fill="#F1F1F1" points="612.5,463.9277,810.5,463.9277,822.5,476.8828,810.5,489.8379,612.5,489.8379,600.5,476.8828,612.5,463.9277" style="stroke:#181818;stroke-width:0.5;"/><text fill="#000000" font-family="sans-serif" font-size="11" lengthAdjust="spacing" textLength="18" x="715.5" y="500.4727">yes</text><text fill="#000000" font-family="sans-serif" font-size="11" lengthAdjust="spacing" textLength="161" x="612.5" y="474.5625">CommonStockSharesIssued &gt;</text><text fill="#000000" font-family="sans-serif" font-size="11" lengthAdjust="spacing" textLength="174" x="636.5" y="487.5176">CommonStockSharesAuthorized</text><text fill="#000000" font-family="sans-serif" font-size="11" lengthAdjust="spacing" textLength="14" x="822.5" y="474.5625">no</text><polygon fill="#F1F1F1" points="711.5,572.9258,723.5,584.9258,711.5,596.9258,699.5,584.9258,711.5,572.9258" style="stroke:#181818;stroke-width:0.5;"/><polygon fill="#F1F1F1" points="645,415.4502,778,415.4502,790,427.4502,778,439.4502,645,439.4502,633,427.4502,645,415.4502" style="stroke:#181818;stroke-width:0.5;"/><text fill="#000000" font-family="sans-serif" font-size="11" lengthAdjust="spacing" textLength="18" x="715.5" y="450.085">yes</text><text fill="#000000" font-family="sans-serif" font-size="11" lengthAdjust="spacing" textLength="133" x="645" y="431.6074">Are both values present?</text><text fill="#000000" font-family="sans-serif" font-size="11" lengthAdjust="spacing" textLength="14" x="790" y="425.1299">no</text><polygon fill="#F1F1F1" points="711.5,621.4033,723.5,633.4033,711.5,645.4033,699.5,633.4033,711.5,621.4033" style="stroke:#181818;stroke-width:0.5;"/><polygon fill="#F1F1F1" points="567,228.9766,856,228.9766,868,248.4092,856,267.8418,567,267.8418,555,248.4092,567,228.9766" style="stroke:#181818;stroke-width:0.5;"/><text fill="#000000" font-family="sans-serif" font-size="11" lengthAdjust="spacing" textLength="14" x="715.5" y="278.4766">no</text><text fill="#000000" font-family="sans-serif" font-size="11" lengthAdjust="spacing" textLength="289" x="567" y="239.6113">exists any StockIssuedDuringPeriodSharesStockSplits,</text><text fill="#000000" font-family="sans-serif" font-size="11" lengthAdjust="spacing" textLength="274" x="579" y="252.5664">StockIssuedDuringPeriodSharesReverseStockSplits,</text><text fill="#000000" font-family="sans-serif" font-size="11" lengthAdjust="spacing" textLength="276" x="579" y="265.5215">StockholdersEquityNoteStockSplitConversionRatio1</text><text fill="#000000" font-family="sans-serif" font-size="11" lengthAdjust="spacing" textLength="18" x="868" y="246.0889">yes</text><polygon fill="#F1F1F1" points="711.5,665.4033,723.5,677.4033,711.5,689.4033,699.5,677.4033,711.5,665.4033" style="stroke:#181818;stroke-width:0.5;"/><rect fill="#F1F1F1" height="34.1328" rx="12.5" ry="12.5" style="stroke:#181818;stroke-width:0.5;" width="124" x="973.5" y="215.7539"/><text fill="#000000" font-family="sans-serif" font-size="12" lengthAdjust="spacing" textLength="104" x="983.5" y="237.3555">Run rule 0009.22</text><rect fill="#F1F1F1" height="34.1328" rx="12.5" ry="12.5" style="stroke:#181818;stroke-width:0.5;" width="204" x="933.5" y="284.8867"/><text fill="#000000" font-family="sans-serif" font-size="12" lengthAdjust="spacing" textLength="184" x="943.5" y="306.4883">Get PreferredStockSharesIssued</text><rect fill="#F1F1F1" height="34.1328" rx="12.5" ry="12.5" style="stroke:#181818;stroke-width:0.5;" width="230" x="920.5" y="346.4521"/><text fill="#000000" font-family="sans-serif" font-size="12" lengthAdjust="spacing" textLength="210" x="930.5" y="368.0537">Get PreferredStockSharesAuthorized</text><rect fill="#FF6347" height="34.1328" rx="12.5" ry="12.5" style="stroke:#181818;stroke-width:0.5;" width="82" x="994.5" y="506.8828"/><text fill="#000000" font-family="sans-serif" font-size="12" lengthAdjust="spacing" textLength="62" x="1004.5" y="528.4844">Show error</text><polygon fill="#F1F1F1" points="930,456.4951,1141,456.4951,1153,469.4502,1141,482.4053,930,482.4053,918,469.4502,930,456.4951" style="stroke:#181818;stroke-width:0.5;"/><text fill="#000000" font-family="sans-serif" font-size="11" lengthAdjust="spacing" textLength="18" x="1039.5" y="493.04">yes</text><text fill="#000000" font-family="sans-serif" font-size="11" lengthAdjust="spacing" textLength="162" x="930" y="467.1299">PreferredStockSharesIssued &gt;</text><text fill="#000000" font-family="sans-serif" font-size="11" lengthAdjust="spacing" textLength="175" x="966" y="480.085">PreferredStockSharesAuthorized</text><text fill="#000000" font-family="sans-serif" font-size="11" lengthAdjust="spacing" textLength="14" x="1153" y="467.1299">no</text><polygon fill="#F1F1F1" points="1035.5,565.4932,1047.5,577.4932,1035.5,589.4932,1023.5,577.4932,1035.5,565.4932" style="stroke:#181818;stroke-width:0.5;"/><polygon fill="#F1F1F1" points="969,408.0176,1102,408.0176,1114,420.0176,1102,432.0176,969,432.0176,957,420.0176,969,408.0176" style="stroke:#181818;stroke-width:0.5;"/><text fill="#000000" font-family="sans-serif" font-size="11" lengthAdjust="spacing" textLength="18" x="1039.5" y="442.6523">yes</text><text fill="#000000" font-family="sans-serif" font-size="11" lengthAdjust="spacing" textLength="133" x="969" y="424.1748">Are both values present?</text><text fill="#000000" font-family="sans-serif" font-size="11" lengthAdjust="spacing" textLength="14" x="1114" y="417.6973">no</text><polygon fill="#F1F1F1" points="1035.5,613.9707,1047.5,625.9707,1035.5,637.9707,1023.5,625.9707,1035.5,613.9707" style="stroke:#181818;stroke-width:0.5;"/><rect fill="#F1F1F1" height="34.1328" rx="12.5" ry="12.5" style="stroke:#181818;stroke-width:0.5;" width="124" x="1245" y="215.7539"/><text fill="#000000" font-family="sans-serif" font-size="12" lengthAdjust="spacing" textLength="104" x="1255" y="237.3555">Run rule 0009.23</text><rect fill="#F1F1F1" height="34.1328" rx="12.5" ry="12.5" style="stroke:#181818;stroke-width:0.5;" width="236" x="1189" y="284.8867"/><text fill="#000000" font-family="sans-serif" font-size="12" lengthAdjust="spacing" textLength="216" x="1199" y="306.4883">Get PreferredStockSharesOutstanding</text><rect fill="#F1F1F1" height="34.1328" rx="12.5" ry="12.5" style="stroke:#181818;stroke-width:0.5;" width="230" x="1192" y="346.4521"/><text fill="#000000" font-family="sans-serif" font-size="12" lengthAdjust="spacing" textLength="210" x="1202" y="368.0537">Get PreferredStockSharesAuthorized</text><rect fill="#FF6347" height="34.1328" rx="12.5" ry="12.5" style="stroke:#181818;stroke-width:0.5;" width="82" x="1266" y="506.8828"/><text fill="#000000" font-family="sans-serif" font-size="12" lengthAdjust="spacing" textLength="62" x="1276" y="528.4844">Show error</text><polygon fill="#F1F1F1" points="1201.5,456.4951,1412.5,456.4951,1424.5,469.4502,1412.5,482.4053,1201.5,482.4053,1189.5,469.4502,1201.5,456.4951" style="stroke:#181818;stroke-width:0.5;"/><text fill="#000000" font-family="sans-serif" font-size="11" lengthAdjust="spacing" textLength="18" x="1311" y="493.04">yes</text><text fill="#000000" font-family="sans-serif" font-size="11" lengthAdjust="spacing" textLength="194" x="1201.5" y="467.1299">PreferredStockSharesOutstanding &gt;</text><text fill="#000000" font-family="sans-serif" font-size="11" lengthAdjust="spacing" textLength="175" x="1237.5" y="480.085">PreferredStockSharesAuthorized</text><text fill="#000000" font-family="sans-serif" font-size="11" lengthAdjust="spacing" textLength="14" x="1424.5" y="467.1299">no</text><polygon fill="#F1F1F1" points="1307,565.4932,1319,577.4932,1307,589.4932,1295,577.4932,1307,565.4932" style="stroke:#181818;stroke-width:0.5;"/><polygon fill="#F1F1F1" points="1240.5,408.0176,1373.5,408.0176,1385.5,420.0176,1373.5,432.0176,1240.5,432.0176,1228.5,420.0176,1240.5,408.0176" style="stroke:#181818;stroke-width:0.5;"/><text fill="#000000" font-family="sans-serif" font-size="11" lengthAdjust="spacing" textLength="18" x="1311" y="442.6523">yes</text><text fill="#000000" font-family="sans-serif" font-size="11" lengthAdjust="spacing" textLength="133" x="1240.5" y="424.1748">Are both values present?</text><text fill="#000000" font-family="sans-serif" font-size="11" lengthAdjust="spacing" textLength="14" x="1385.5" y="417.6973">no</text><polygon fill="#F1F1F1" points="1307,613.9707,1319,625.9707,1307,637.9707,1295,625.9707,1307,613.9707" style="stroke:#181818;stroke-width:0.5;"/><rect fill="#F1F1F1" height="34.1328" rx="12.5" ry="12.5" style="stroke:#181818;stroke-width:0.5;" width="124" x="1514.5" y="215.7539"/><text fill="#000000" font-family="sans-serif" font-size="12" lengthAdjust="spacing" textLength="104" x="1524.5" y="237.3555">Run rule 0009.24</text><rect fill="#F1F1F1" height="34.1328" rx="12.5" ry="12.5" style="stroke:#181818;stroke-width:0.5;" width="232" x="1460.5" y="284.8867"/><text fill="#000000" font-family="sans-serif" font-size="12" lengthAdjust="spacing" textLength="212" x="1470.5" y="306.4883">Get CommonStockSharesOutstanding</text><rect fill="#F1F1F1" height="34.1328" rx="12.5" ry="12.5" style="stroke:#181818;stroke-width:0.5;" width="200" x="1476.5" y="346.4521"/><text fill="#000000" font-family="sans-serif" font-size="12" lengthAdjust="spacing" textLength="180" x="1486.5" y="368.0537">Get CommonStockSharesIssued</text><rect fill="#FF6347" height="34.1328" rx="12.5" ry="12.5" style="stroke:#181818;stroke-width:0.5;" width="82" x="1535.5" y="506.8828"/><text fill="#000000" font-family="sans-serif" font-size="12" lengthAdjust="spacing" textLength="62" x="1545.5" y="528.4844">Show error</text><polygon fill="#F1F1F1" points="1478.5,456.4951,1674.5,456.4951,1686.5,469.4502,1674.5,482.4053,1478.5,482.4053,1466.5,469.4502,1478.5,456.4951" style="stroke:#181818;stroke-width:0.5;"/><text fill="#000000" font-family="sans-serif" font-size="11" lengthAdjust="spacing" textLength="18" x="1580.5" y="493.04">yes</text><text fill="#000000" font-family="sans-serif" font-size="11" lengthAdjust="spacing" textLength="193" x="1478.5" y="467.1299">CommonStockSharesOutstanding &gt;</text><text fill="#000000" font-family="sans-serif" font-size="11" lengthAdjust="spacing" textLength="149" x="1514.5" y="480.085">CommonStockSharesIssued</text><text fill="#000000" font-family="sans-serif" font-size="11" lengthAdjust="spacing" textLength="14" x="1686.5" y="467.1299">no</text><polygon fill="#F1F1F1" points="1576.5,565.4932,1588.5,577.4932,1576.5,589.4932,1564.5,577.4932,1576.5,565.4932" style="stroke:#181818;stroke-width:0.5;"/><polygon fill="#F1F1F1" points="1510,408.0176,1643,408.0176,1655,420.0176,1643,432.0176,1510,432.0176,1498,420.0176,1510,408.0176" style="stroke:#181818;stroke-width:0.5;"/><text fill="#000000" font-family="sans-serif" font-size="11" lengthAdjust="spacing" textLength="18" x="1580.5" y="442.6523">yes</text><text fill="#000000" font-family="sans-serif" font-size="11" lengthAdjust="spacing" textLength="133" x="1510" y="424.1748">Are both values present?</text><text fill="#000000" font-family="sans-serif" font-size="11" lengthAdjust="spacing" textLength="14" x="1655" y="417.6973">no</text><polygon fill="#F1F1F1" points="1576.5,613.9707,1588.5,625.9707,1576.5,637.9707,1564.5,625.9707,1576.5,613.9707" style="stroke:#181818;stroke-width:0.5;"/><line style="stroke:#181818;stroke-width:1.5;" x1="137" x2="1576.5" y1="709.4033" y2="709.4033"/><rect fill="#F1F1F1" height="34.1328" rx="12.5" ry="12.5" style="stroke:#181818;stroke-width:0.5;" width="232" x="754.5" y="87.4883"/><text fill="#000000" font-family="sans-serif" font-size="12" lengthAdjust="spacing" textLength="208" x="768.5" y="109.0898">Go through each context in the filing</text><polygon fill="#F1F1F1" points="774.5,729.4033,966.5,729.4033,978.5,741.4033,966.5,753.4033,774.5,753.4033,762.5,741.4033,774.5,729.4033" style="stroke:#181818;stroke-width:0.5;"/><text fill="#000000" font-family="sans-serif" font-size="11" lengthAdjust="spacing" textLength="192" x="774.5" y="745.5605">Is there another context in the filing</text><text fill="#000000" font-family="sans-serif" font-size="11" lengthAdjust="spacing" textLength="18" x="978.5" y="739.083">yes</text><ellipse cx="870.5" cy="804.6787" fill="none" rx="10" ry="10" style="stroke:#222222;stroke-width:1.5;"/><line style="stroke:#222222;stroke-width:2.5;" x1="864.3128" x2="876.6872" y1="798.4915" y2="810.8659"/><line style="stroke:#222222;stroke-width:2.5;" x1="876.6872" x2="864.3128" y1="798.4915" y2="810.8659"/><line style="stroke:#181818;stroke-width:1.0;" x1="137" x2="137" y1="249.8867" y2="284.8867"/><polygon fill="#181818" points="133,274.8867,137,284.8867,141,274.8867,137,278.8867" style="stroke:#181818;stroke-width:1.0;"/><line style="stroke:#181818;stroke-width:1.0;" x1="137" x2="137" y1="319.0195" y2="346.4521"/><polygon fill="#181818" points="133,336.4521,137,346.4521,141,336.4521,137,340.4521" style="stroke:#181818;stroke-width:1.0;"/><line style="stroke:#181818;stroke-width:1.0;" x1="137" x2="137" y1="482.4053" y2="506.8828"/><polygon fill="#181818" points="133,496.8828,137,506.8828,141,496.8828,137,500.8828" style="stroke:#181818;stroke-width:1.0;"/><line style="stroke:#181818;stroke-width:1.0;" x1="254" x2="266" y1="469.4502" y2="469.4502"/><polygon fill="#181818" points="262,513.4717,266,523.4717,270,513.4717,266,517.4717" style="stroke:#181818;stroke-width:1.0;"/><line style="stroke:#181818;stroke-width:1.0;" x1="266" x2="266" y1="469.4502" y2="577.4932"/><line style="stroke:#181818;stroke-width:1.0;" x1="266" x2="149" y1="577.4932" y2="577.4932"/><polygon fill="#181818" points="159,573.4932,149,577.4932,159,581.4932,155,577.4932" style="stroke:#181818;stroke-width:1.0;"/><line style="stroke:#181818;stroke-width:1.0;" x1="137" x2="137" y1="541.0156" y2="565.4932"/><polygon fill="#181818" points="133,555.4932,137,565.4932,141,555.4932,137,559.4932" style="stroke:#181818;stroke-width:1.0;"/><line style="stroke:#181818;stroke-width:1.0;" x1="137" x2="137" y1="432.0176" y2="456.4951"/><polygon fill="#181818" points="133,446.4951,137,456.4951,141,446.4951,137,450.4951" style="stroke:#181818;stroke-width:1.0;"/><line style="stroke:#181818;stroke-width:1.0;" x1="215.5" x2="276" y1="420.0176" y2="420.0176"/><polygon fill="#181818" points="272,512.9941,276,522.9941,280,512.9941,276,516.9941" style="stroke:#181818;stroke-width:1.0;"/><line style="stroke:#181818;stroke-width:1.0;" x1="276" x2="276" y1="420.0176" y2="625.9707"/><line style="stroke:#181818;stroke-width:1.0;" x1="276" x2="149" y1="625.9707" y2="625.9707"/><polygon fill="#181818" points="159,621.9707,149,625.9707,159,629.9707,155,625.9707" style="stroke:#181818;stroke-width:1.0;"/><line style="stroke:#181818;stroke-width:1.0;" x1="137" x2="137" y1="589.4932" y2="613.9707"/><polygon fill="#181818" points="133,603.9707,137,613.9707,141,603.9707,137,607.9707" style="stroke:#181818;stroke-width:1.0;"/><line style="stroke:#181818;stroke-width:1.0;" x1="137" x2="137" y1="380.585" y2="408.0176"/><polygon fill="#181818" points="133,398.0176,137,408.0176,141,398.0176,137,402.0176" style="stroke:#181818;stroke-width:1.0;"/><line style="stroke:#181818;stroke-width:1.0;" x1="408" x2="408" y1="249.8867" y2="284.8867"/><polygon fill="#181818" points="404,274.8867,408,284.8867,412,274.8867,408,278.8867" style="stroke:#181818;stroke-width:1.0;"/><line style="stroke:#181818;stroke-width:1.0;" x1="408" x2="408" y1="319.0195" y2="346.4521"/><polygon fill="#181818" points="404,336.4521,408,346.4521,412,336.4521,408,340.4521" style="stroke:#181818;stroke-width:1.0;"/><line style="stroke:#181818;stroke-width:1.0;" x1="408" x2="408" y1="482.4053" y2="506.8828"/><polygon fill="#181818" points="404,496.8828,408,506.8828,412,496.8828,408,500.8828" style="stroke:#181818;stroke-width:1.0;"/><line style="stroke:#181818;stroke-width:1.0;" x1="519" x2="531" y1="469.4502" y2="469.4502"/><polygon fill="#181818" points="527,513.4717,531,523.4717,535,513.4717,531,517.4717" style="stroke:#181818;stroke-width:1.0;"/><line style="stroke:#181818;stroke-width:1.0;" x1="531" x2="531" y1="469.4502" y2="577.4932"/><line style="stroke:#181818;stroke-width:1.0;" x1="531" x2="420" y1="577.4932" y2="577.4932"/><polygon fill="#181818" points="430,573.4932,420,577.4932,430,581.4932,426,577.4932" style="stroke:#181818;stroke-width:1.0;"/><line style="stroke:#181818;stroke-width:1.0;" x1="408" x2="408" y1="541.0156" y2="565.4932"/><polygon fill="#181818" points="404,555.4932,408,565.4932,412,555.4932,408,559.4932" style="stroke:#181818;stroke-width:1.0;"/><line style="stroke:#181818;stroke-width:1.0;" x1="408" x2="408" y1="432.0176" y2="456.4951"/><polygon fill="#181818" points="404,446.4951,408,456.4951,412,446.4951,408,450.4951" style="stroke:#181818;stroke-width:1.0;"/><line style="stroke:#181818;stroke-width:1.0;" x1="486.5" x2="541" y1="420.0176" y2="420.0176"/><polygon fill="#181818" points="537,512.9941,541,522.9941,545,512.9941,541,516.9941" style="stroke:#181818;stroke-width:1.0;"/><line style="stroke:#181818;stroke-width:1.0;" x1="541" x2="541" y1="420.0176" y2="625.9707"/><line style="stroke:#181818;stroke-width:1.0;" x1="541" x2="420" y1="625.9707" y2="625.9707"/><polygon fill="#181818" points="430,621.9707,420,625.9707,430,629.9707,426,625.9707" style="stroke:#181818;stroke-width:1.0;"/><line style="stroke:#181818;stroke-width:1.0;" x1="408" x2="408" y1="589.4932" y2="613.9707"/><polygon fill="#181818" points="404,603.9707,408,613.9707,412,603.9707,408,607.9707" style="stroke:#181818;stroke-width:1.0;"/><line style="stroke:#181818;stroke-width:1.0;" x1="408" x2="408" y1="380.585" y2="408.0176"/><polygon fill="#181818" points="404,398.0176,408,408.0176,412,398.0176,408,402.0176" style="stroke:#181818;stroke-width:1.0;"/><line style="stroke:#181818;stroke-width:1.0;" x1="711.5" x2="711.5" y1="326.4521" y2="353.8848"/><polygon fill="#181818" points="707.5,343.8848,711.5,353.8848,715.5,343.8848,711.5,347.8848" style="stroke:#181818;stroke-width:1.0;"/><line style="stroke:#181818;stroke-width:1.0;" x1="711.5" x2="711.5" y1="489.8379" y2="514.3154"/><polygon fill="#181818" points="707.5,504.3154,711.5,514.3154,715.5,504.3154,711.5,508.3154" style="stroke:#181818;stroke-width:1.0;"/><line style="stroke:#181818;stroke-width:1.0;" x1="822.5" x2="834.5" y1="476.8828" y2="476.8828"/><polygon fill="#181818" points="830.5,520.9043,834.5,530.9043,838.5,520.9043,834.5,524.9043" style="stroke:#181818;stroke-width:1.0;"/><line style="stroke:#181818;stroke-width:1.0;" x1="834.5" x2="834.5" y1="476.8828" y2="584.9258"/><line style="stroke:#181818;stroke-width:1.0;" x1="834.5" x2="723.5" y1="584.9258" y2="584.9258"/><polygon fill="#181818" points="733.5,580.9258,723.5,584.9258,733.5,588.9258,729.5,584.9258" style="stroke:#181818;stroke-width:1.0;"/><line style="stroke:#181818;stroke-width:1.0;" x1="711.5" x2="711.5" y1="548.4482" y2="572.9258"/><polygon fill="#181818" points="707.5,562.9258,711.5,572.9258,715.5,562.9258,711.5,566.9258" style="stroke:#181818;stroke-width:1.0;"/><line style="stroke:#181818;stroke-width:1.0;" x1="711.5" x2="711.5" y1="439.4502" y2="463.9277"/><polygon fill="#181818" points="707.5,453.9277,711.5,463.9277,715.5,453.9277,711.5,457.9277" style="stroke:#181818;stroke-width:1.0;"/><line style="stroke:#181818;stroke-width:1.0;" x1="790" x2="844.5" y1="427.4502" y2="427.4502"/><polygon fill="#181818" points="840.5,520.4268,844.5,530.4268,848.5,520.4268,844.5,524.4268" style="stroke:#181818;stroke-width:1.0;"/><line style="stroke:#181818;stroke-width:1.0;" x1="844.5" x2="844.5" y1="427.4502" y2="633.4033"/><line style="stroke:#181818;stroke-width:1.0;" x1="844.5" x2="723.5" y1="633.4033" y2="633.4033"/><polygon fill="#181818" points="733.5,629.4033,723.5,633.4033,733.5,637.4033,729.5,633.4033" style="stroke:#181818;stroke-width:1.0;"/><line style="stroke:#181818;stroke-width:1.0;" x1="711.5" x2="711.5" y1="596.9258" y2="621.4033"/><polygon fill="#181818" points="707.5,611.4033,711.5,621.4033,715.5,611.4033,711.5,615.4033" style="stroke:#181818;stroke-width:1.0;"/><line style="stroke:#181818;stroke-width:1.0;" x1="711.5" x2="711.5" y1="388.0176" y2="415.4502"/><polygon fill="#181818" points="707.5,405.4502,711.5,415.4502,715.5,405.4502,711.5,409.4502" style="stroke:#181818;stroke-width:1.0;"/><line style="stroke:#181818;stroke-width:1.0;" x1="711.5" x2="711.5" y1="267.8418" y2="292.3193"/><polygon fill="#181818" points="707.5,282.3193,711.5,292.3193,715.5,282.3193,711.5,286.3193" style="stroke:#181818;stroke-width:1.0;"/><line style="stroke:#181818;stroke-width:1.0;" x1="868" x2="880" y1="248.4092" y2="248.4092"/><polygon fill="#181818" points="876,447.5776,880,457.5776,884,447.5776,880,451.5776" style="stroke:#181818;stroke-width:1.0;"/><line style="stroke:#181818;stroke-width:1.0;" x1="880" x2="880" y1="248.4092" y2="677.4033"/><line style="stroke:#181818;stroke-width:1.0;" x1="880" x2="723.5" y1="677.4033" y2="677.4033"/><polygon fill="#181818" points="733.5,673.4033,723.5,677.4033,733.5,681.4033,729.5,677.4033" style="stroke:#181818;stroke-width:1.0;"/><line style="stroke:#181818;stroke-width:1.0;" x1="711.5" x2="711.5" y1="645.4033" y2="665.4033"/><polygon fill="#181818" points="707.5,655.4033,711.5,665.4033,715.5,655.4033,711.5,659.4033" style="stroke:#181818;stroke-width:1.0;"/><line style="stroke:#181818;stroke-width:1.0;" x1="711.5" x2="711.5" y1="195.7539" y2="228.9766"/><polygon fill="#181818" points="707.5,218.9766,711.5,228.9766,715.5,218.9766,711.5,222.9766" style="stroke:#181818;stroke-width:1.0;"/><line style="stroke:#181818;stroke-width:1.0;" x1="1035.5" x2="1035.5" y1="249.8867" y2="284.8867"/><polygon fill="#181818" points="1031.5,274.8867,1035.5,284.8867,1039.5,274.8867,1035.5,278.8867" style="stroke:#181818;stroke-width:1.0;"/><line style="stroke:#181818;stroke-width:1.0;" x1="1035.5" x2="1035.5" y1="319.0195" y2="346.4521"/><polygon fill="#181818" points="1031.5,336.4521,1035.5,346.4521,1039.5,336.4521,1035.5,340.4521" style="stroke:#181818;stroke-width:1.0;"/><line style="stroke:#181818;stroke-width:1.0;" x1="1035.5" x2="1035.5" y1="482.4053" y2="506.8828"/><polygon fill="#181818" points="1031.5,496.8828,1035.5,506.8828,1039.5,496.8828,1035.5,500.8828" style="stroke:#181818;stroke-width:1.0;"/><line style="stroke:#181818;stroke-width:1.0;" x1="1153" x2="1165" y1="469.4502" y2="469.4502"/><polygon fill="#181818" points="1161,513.4717,1165,523.4717,1169,513.4717,1165,517.4717" style="stroke:#181818;stroke-width:1.0;"/><line style="stroke:#181818;stroke-width:1.0;" x1="1165" x2="1165" y1="469.4502" y2="577.4932"/><line style="stroke:#181818;stroke-width:1.0;" x1="1165" x2="1047.5" y1="577.4932" y2="577.4932"/><polygon fill="#181818" points="1057.5,573.4932,1047.5,577.4932,1057.5,581.4932,1053.5,577.4932" style="stroke:#181818;stroke-width:1.0;"/><line style="stroke:#181818;stroke-width:1.0;" x1="1035.5" x2="1035.5" y1="541.0156" y2="565.4932"/><polygon fill="#181818" points="1031.5,555.4932,1035.5,565.4932,1039.5,555.4932,1035.5,559.4932" style="stroke:#181818;stroke-width:1.0;"/><line style="stroke:#181818;stroke-width:1.0;" x1="1035.5" x2="1035.5" y1="432.0176" y2="456.4951"/><polygon fill="#181818" points="1031.5,446.4951,1035.5,456.4951,1039.5,446.4951,1035.5,450.4951" style="stroke:#181818;stroke-width:1.0;"/><line style="stroke:#181818;stroke-width:1.0;" x1="1114" x2="1175" y1="420.0176" y2="420.0176"/><polygon fill="#181818" points="1171,512.9941,1175,522.9941,1179,512.9941,1175,516.9941" style="stroke:#181818;stroke-width:1.0;"/><line style="stroke:#181818;stroke-width:1.0;" x1="1175" x2="1175" y1="420.0176" y2="625.9707"/><line style="stroke:#181818;stroke-width:1.0;" x1="1175" x2="1047.5" y1="625.9707" y2="625.9707"/><polygon fill="#181818" points="1057.5,621.9707,1047.5,625.9707,1057.5,629.9707,1053.5,625.9707" style="stroke:#181818;stroke-width:1.0;"/><line style="stroke:#181818;stroke-width:1.0;" x1="1035.5" x2="1035.5" y1="589.4932" y2="613.9707"/><polygon fill="#181818" points="1031.5,603.9707,1035.5,613.9707,1039.5,603.9707,1035.5,607.9707" style="stroke:#181818;stroke-width:1.0;"/><line style="stroke:#181818;stroke-width:1.0;" x1="1035.5" x2="1035.5" y1="380.585" y2="408.0176"/><polygon fill="#181818" points="1031.5,398.0176,1035.5,408.0176,1039.5,398.0176,1035.5,402.0176" style="stroke:#181818;stroke-width:1.0;"/><line style="stroke:#181818;stroke-width:1.0;" x1="1307" x2="1307" y1="249.8867" y2="284.8867"/><polygon fill="#181818" points="1303,274.8867,1307,284.8867,1311,274.8867,1307,278.8867" style="stroke:#181818;stroke-width:1.0;"/><line style="stroke:#181818;stroke-width:1.0;" x1="1307" x2="1307" y1="319.0195" y2="346.4521"/><polygon fill="#181818" points="1303,336.4521,1307,346.4521,1311,336.4521,1307,340.4521" style="stroke:#181818;stroke-width:1.0;"/><line style="stroke:#181818;stroke-width:1.0;" x1="1307" x2="1307" y1="482.4053" y2="506.8828"/><polygon fill="#181818" points="1303,496.8828,1307,506.8828,1311,496.8828,1307,500.8828" style="stroke:#181818;stroke-width:1.0;"/><line style="stroke:#181818;stroke-width:1.0;" x1="1424.5" x2="1436.5" y1="469.4502" y2="469.4502"/><polygon fill="#181818" points="1432.5,513.4717,1436.5,523.4717,1440.5,513.4717,1436.5,517.4717" style="stroke:#181818;stroke-width:1.0;"/><line style="stroke:#181818;stroke-width:1.0;" x1="1436.5" x2="1436.5" y1="469.4502" y2="577.4932"/><line style="stroke:#181818;stroke-width:1.0;" x1="1436.5" x2="1319" y1="577.4932" y2="577.4932"/><polygon fill="#181818" points="1329,573.4932,1319,577.4932,1329,581.4932,1325,577.4932" style="stroke:#181818;stroke-width:1.0;"/><line style="stroke:#181818;stroke-width:1.0;" x1="1307" x2="1307" y1="541.0156" y2="565.4932"/><polygon fill="#181818" points="1303,555.4932,1307,565.4932,1311,555.4932,1307,559.4932" style="stroke:#181818;stroke-width:1.0;"/><line style="stroke:#181818;stroke-width:1.0;" x1="1307" x2="1307" y1="432.0176" y2="456.4951"/><polygon fill="#181818" points="1303,446.4951,1307,456.4951,1311,446.4951,1307,450.4951" style="stroke:#181818;stroke-width:1.0;"/><line style="stroke:#181818;stroke-width:1.0;" x1="1385.5" x2="1446.5" y1="420.0176" y2="420.0176"/><polygon fill="#181818" points="1442.5,512.9941,1446.5,522.9941,1450.5,512.9941,1446.5,516.9941" style="stroke:#181818;stroke-width:1.0;"/><line style="stroke:#181818;stroke-width:1.0;" x1="1446.5" x2="1446.5" y1="420.0176" y2="625.9707"/><line style="stroke:#181818;stroke-width:1.0;" x1="1446.5" x2="1319" y1="625.9707" y2="625.9707"/><polygon fill="#181818" points="1329,621.9707,1319,625.9707,1329,629.9707,1325,625.9707" style="stroke:#181818;stroke-width:1.0;"/><line style="stroke:#181818;stroke-width:1.0;" x1="1307" x2="1307" y1="589.4932" y2="613.9707"/><polygon fill="#181818" points="1303,603.9707,1307,613.9707,1311,603.9707,1307,607.9707" style="stroke:#181818;stroke-width:1.0;"/><line style="stroke:#181818;stroke-width:1.0;" x1="1307" x2="1307" y1="380.585" y2="408.0176"/><polygon fill="#181818" points="1303,398.0176,1307,408.0176,1311,398.0176,1307,402.0176" style="stroke:#181818;stroke-width:1.0;"/><line style="stroke:#181818;stroke-width:1.0;" x1="1576.5" x2="1576.5" y1="249.8867" y2="284.8867"/><polygon fill="#181818" points="1572.5,274.8867,1576.5,284.8867,1580.5,274.8867,1576.5,278.8867" style="stroke:#181818;stroke-width:1.0;"/><line style="stroke:#181818;stroke-width:1.0;" x1="1576.5" x2="1576.5" y1="319.0195" y2="346.4521"/><polygon fill="#181818" points="1572.5,336.4521,1576.5,346.4521,1580.5,336.4521,1576.5,340.4521" style="stroke:#181818;stroke-width:1.0;"/><line style="stroke:#181818;stroke-width:1.0;" x1="1576.5" x2="1576.5" y1="482.4053" y2="506.8828"/><polygon fill="#181818" points="1572.5,496.8828,1576.5,506.8828,1580.5,496.8828,1576.5,500.8828" style="stroke:#181818;stroke-width:1.0;"/><line style="stroke:#181818;stroke-width:1.0;" x1="1686.5" x2="1698.5" y1="469.4502" y2="469.4502"/><polygon fill="#181818" points="1694.5,513.4717,1698.5,523.4717,1702.5,513.4717,1698.5,517.4717" style="stroke:#181818;stroke-width:1.0;"/><line style="stroke:#181818;stroke-width:1.0;" x1="1698.5" x2="1698.5" y1="469.4502" y2="577.4932"/><line style="stroke:#181818;stroke-width:1.0;" x1="1698.5" x2="1588.5" y1="577.4932" y2="577.4932"/><polygon fill="#181818" points="1598.5,573.4932,1588.5,577.4932,1598.5,581.4932,1594.5,577.4932" style="stroke:#181818;stroke-width:1.0;"/><line style="stroke:#181818;stroke-width:1.0;" x1="1576.5" x2="1576.5" y1="541.0156" y2="565.4932"/><polygon fill="#181818" points="1572.5,555.4932,1576.5,565.4932,1580.5,555.4932,1576.5,559.4932" style="stroke:#181818;stroke-width:1.0;"/><line style="stroke:#181818;stroke-width:1.0;" x1="1576.5" x2="1576.5" y1="432.0176" y2="456.4951"/><polygon fill="#181818" points="1572.5,446.4951,1576.5,456.4951,1580.5,446.4951,1576.5,450.4951" style="stroke:#181818;stroke-width:1.0;"/><line style="stroke:#181818;stroke-width:1.0;" x1="1655" x2="1708.5" y1="420.0176" y2="420.0176"/><polygon fill="#181818" points="1704.5,512.9941,1708.5,522.9941,1712.5,512.9941,1708.5,516.9941" style="stroke:#181818;stroke-width:1.0;"/><line style="stroke:#181818;stroke-width:1.0;" x1="1708.5" x2="1708.5" y1="420.0176" y2="625.9707"/><line style="stroke:#181818;stroke-width:1.0;" x1="1708.5" x2="1588.5" y1="625.9707" y2="625.9707"/><polygon fill="#181818" points="1598.5,621.9707,1588.5,625.9707,1598.5,629.9707,1594.5,625.9707" style="stroke:#181818;stroke-width:1.0;"/><line style="stroke:#181818;stroke-width:1.0;" x1="1576.5" x2="1576.5" y1="589.4932" y2="613.9707"/><polygon fill="#181818" points="1572.5,603.9707,1576.5,613.9707,1580.5,603.9707,1576.5,607.9707" style="stroke:#181818;stroke-width:1.0;"/><line style="stroke:#181818;stroke-width:1.0;" x1="1576.5" x2="1576.5" y1="380.585" y2="408.0176"/><polygon fill="#181818" points="1572.5,398.0176,1576.5,408.0176,1580.5,398.0176,1576.5,402.0176" style="stroke:#181818;stroke-width:1.0;"/><line style="stroke:#181818;stroke-width:1.0;" x1="137" x2="137" y1="143.1211" y2="215.7539"/><polygon fill="#181818" points="133,205.7539,137,215.7539,141,205.7539,137,209.7539" style="stroke:#181818;stroke-width:1.0;"/><line style="stroke:#181818;stroke-width:1.0;" x1="408" x2="408" y1="143.1211" y2="215.7539"/><polygon fill="#181818" points="404,205.7539,408,215.7539,412,205.7539,408,209.7539" style="stroke:#181818;stroke-width:1.0;"/><line style="stroke:#181818;stroke-width:1.0;" x1="711.5" x2="711.5" y1="143.1211" y2="161.6211"/><polygon fill="#181818" points="707.5,151.6211,711.5,161.6211,715.5,151.6211,711.5,155.6211" style="stroke:#181818;stroke-width:1.0;"/><line style="stroke:#181818;stroke-width:1.0;" x1="1035.5" x2="1035.5" y1="143.1211" y2="215.7539"/><polygon fill="#181818" points="1031.5,205.7539,1035.5,215.7539,1039.5,205.7539,1035.5,209.7539" style="stroke:#181818;stroke-width:1.0;"/><line style="stroke:#181818;stroke-width:1.0;" x1="1307" x2="1307" y1="143.1211" y2="215.7539"/><polygon fill="#181818" points="1303,205.7539,1307,215.7539,1311,205.7539,1307,209.7539" style="stroke:#181818;stroke-width:1.0;"/><line style="stroke:#181818;stroke-width:1.0;" x1="1576.5" x2="1576.5" y1="143.1211" y2="215.7539"/><polygon fill="#181818" points="1572.5,205.7539,1576.5,215.7539,1580.5,205.7539,1576.5,209.7539" style="stroke:#181818;stroke-width:1.0;"/><line style="stroke:#181818;stroke-width:1.0;" x1="137" x2="137" y1="637.9707" y2="709.4033"/><polygon fill="#181818" points="133,699.4033,137,709.4033,141,699.4033,137,703.4033" style="stroke:#181818;stroke-width:1.0;"/><line style="stroke:#181818;stroke-width:1.0;" x1="408" x2="408" y1="637.9707" y2="709.4033"/><polygon fill="#181818" points="404,699.4033,408,709.4033,412,699.4033,408,703.4033" style="stroke:#181818;stroke-width:1.0;"/><line style="stroke:#181818;stroke-width:1.0;" x1="711.5" x2="711.5" y1="689.4033" y2="709.4033"/><polygon fill="#181818" points="707.5,699.4033,711.5,709.4033,715.5,699.4033,711.5,703.4033" style="stroke:#181818;stroke-width:1.0;"/><line style="stroke:#181818;stroke-width:1.0;" x1="1035.5" x2="1035.5" y1="637.9707" y2="709.4033"/><polygon fill="#181818" points="1031.5,699.4033,1035.5,709.4033,1039.5,699.4033,1035.5,703.4033" style="stroke:#181818;stroke-width:1.0;"/><line style="stroke:#181818;stroke-width:1.0;" x1="1307" x2="1307" y1="637.9707" y2="709.4033"/><polygon fill="#181818" points="1303,699.4033,1307,709.4033,1311,699.4033,1307,703.4033" style="stroke:#181818;stroke-width:1.0;"/><line style="stroke:#181818;stroke-width:1.0;" x1="1576.5" x2="1576.5" y1="637.9707" y2="709.4033"/><polygon fill="#181818" points="1572.5,699.4033,1576.5,709.4033,1580.5,699.4033,1576.5,703.4033" style="stroke:#181818;stroke-width:1.0;"/><line style="stroke:#181818;stroke-width:1.0;" x1="870.5" x2="870.5" y1="121.6211" y2="141.6211"/><polygon fill="#181818" points="866.5,131.6211,870.5,141.6211,874.5,131.6211,870.5,135.6211" style="stroke:#181818;stroke-width:1.0;"/><line style="stroke:#181818;stroke-width:1.0;" x1="978.5" x2="1726.5" y1="741.4033" y2="741.4033"/><polygon fill="#181818" points="1722.5,426.7617,1726.5,416.7617,1730.5,426.7617,1726.5,422.7617" style="stroke:#181818;stroke-width:1.0;"/><line style="stroke:#181818;stroke-width:1.0;" x1="1726.5" x2="1726.5" y1="104.5547" y2="741.4033"/><line style="stroke:#181818;stroke-width:1.0;" x1="1726.5" x2="986.5" y1="104.5547" y2="104.5547"/><polygon fill="#181818" points="996.5,100.5547,986.5,104.5547,996.5,108.5547,992.5,104.5547" style="stroke:#181818;stroke-width:1.0;"/><line style="stroke:#181818;stroke-width:1.0;" x1="870.5" x2="870.5" y1="710.9033" y2="729.4033"/><polygon fill="#181818" points="866.5,719.4033,870.5,729.4033,874.5,719.4033,870.5,723.4033" style="stroke:#181818;stroke-width:1.0;"/><line style="stroke:#181818;stroke-width:1.0;" x1="870.5" x2="870.5" y1="67.4883" y2="87.4883"/><polygon fill="#181818" points="866.5,77.4883,870.5,87.4883,874.5,77.4883,870.5,81.4883" style="stroke:#181818;stroke-width:1.0;"/><line style="stroke:#181818;stroke-width:1.0;" x1="870.5" x2="870.5" y1="753.4033" y2="794.6787"/><polygon fill="#181818" points="866.5,784.6787,870.5,794.6787,874.5,784.6787,870.5,788.6787" style="stroke:#181818;stroke-width:1.0;"/><text fill="#000000" font-family="sans-serif" font-size="11" lengthAdjust="spacing" textLength="14" x="874.5" y="774.8584">no</text><!--MD5=[7f8ed4750924167675c3f42b1d23f818]
@startuml rule_0009_shares
title "Rule DQC 0009 Shares Comparison"
!pragma useVerticalIf on
start

repeat : Go through each context in the filing;
 
 split
   :Run rule 0009.15;
   :Get CommonStockSharesOutstanding;
   :Get CommonStockSharesAuthorized;
   if (Are both values present?) then (yes)
    if (CommonStockSharesOutstanding > 
            CommonStockSharesAuthorized) then (yes)
        #tomato:Show error;
    else (no)
        endif
   else (no)
    endif
split again
   :Run rule 0009.19;
   :Get PreferredStockSharesOutstanding;
   :Get CommonStockSharesAuthorized;
   if (Are both values present?) then (yes)
        if (PreferredStockSharesOutstanding > 
                PreferredStockSharesIssued) then (yes)
            #tomato:Show error;
        else (no)
        endif
    else (no)
    endif
split again
   :Run rule 0009.21;
   if (exists any StockIssuedDuringPeriodSharesStockSplits,
    StockIssuedDuringPeriodSharesReverseStockSplits, 
    StockholdersEquityNoteStockSplitConversionRatio1) then (yes)
    else (no)
   :Get CommonStockSharesIssued;
   :Get CommonStockSharesAuthorized;
   if (Are both values present?) then (yes)
   if (CommonStockSharesIssued > 
        CommonStockSharesAuthorized) then (yes)
     #tomato:Show error;
   else (no)
    
    
    endif
    else (no)
    endif
    endif
split again
   :Run rule 0009.22;
   :Get PreferredStockSharesIssued;
   :Get PreferredStockSharesAuthorized;
    if (Are both values present?) then (yes)
      if (PreferredStockSharesIssued > 
            PreferredStockSharesAuthorized) then (yes)
        #tomato:Show error;
      else (no)
      endif
    else (no)
      endif
    
split again
   :Run rule 0009.23;
   :Get PreferredStockSharesOutstanding;
   :Get PreferredStockSharesAuthorized;
   if (Are both values present?) then (yes)
      if (PreferredStockSharesOutstanding > 
            PreferredStockSharesAuthorized) then (yes)
        #tomato:Show error;
      else (no)
        endif
  else (no)
      endif

  split again
   :Run rule 0009.24;
   :Get CommonStockSharesOutstanding;
   :Get CommonStockSharesIssued;
   if (Are both values present?) then (yes)
      if (CommonStockSharesOutstanding > 
            CommonStockSharesIssued) then (yes)
        #tomato:Show error;
      else (no)
      endif
  else (no)
      endif
    
end split

    repeat while (Is there another context in the filing) is (yes)
    ->no;
    
end

@enduml

PlantUML version 1.2022.7(Mon Aug 22 13:01:30 EDT 2022)
(GPL source distribution)
Java Runtime: OpenJDK Runtime Environment
JVM: OpenJDK 64-Bit Server VM
Default Encoding: UTF-8
Language: en
Country: US
--></g></svg>