<?xml version="1.0" encoding="UTF-8" standalone="no"?><svg xmlns="http://www.w3.org/2000/svg" xmlns:xlink="http://www.w3.org/1999/xlink" contentStyleType="text/css" height="803px" preserveAspectRatio="none" style="width:1686px;height:803px;background:#FFFFFF;" version="1.1" viewBox="0 0 1686 803" width="1686px" zoomAndPan="magnify"><defs/><g><rect fill="none" height="26.4883" id="_title" style="stroke:none;stroke-width:1.0;" width="282" x="700.5" y="15"/><text fill="#000000" font-family="sans-serif" font-size="14" font-weight="bold" lengthAdjust="spacing" textLength="272" x="705.5" y="33.5352">Rule DQC 0009 DB Plans Comparison</text><ellipse cx="825.75" cy="57.4883" fill="#222222" rx="10" ry="10" style="stroke:#222222;stroke-width:1.0;"/><line style="stroke:#181818;stroke-width:1.5;" x1="180.5" x2="1470" y1="141.6211" y2="141.6211"/><rect fill="#F1F1F1" height="34.1328" rx="12.5" ry="12.5" style="stroke:#181818;stroke-width:0.5;" width="124" x="118.5" y="161.6211"/><text fill="#000000" font-family="sans-serif" font-size="12" lengthAdjust="spacing" textLength="104" x="128.5" y="183.2227">Run rule 0009.40</text><rect fill="#F1F1F1" height="76.5313" rx="12.5" ry="12.5" style="stroke:#181818;stroke-width:0.5;" width="276" x="42.5" y="230.7539"/><text fill="#000000" font-family="sans-serif" font-size="12" lengthAdjust="spacing" textLength="206" x="52.5" y="252.3555">Get DefinedBenefitPlanPensionPlans</text><text fill="#000000" font-family="sans-serif" font-size="12" lengthAdjust="spacing" textLength="201" x="52.5" y="266.4883">WithAccumulatedBenefitObligations</text><text fill="#000000" font-family="sans-serif" font-size="12" lengthAdjust="spacing" textLength="256" x="52.5" y="280.6211">InExcessOfPlanAssetsAggregateAccumulated</text><text fill="#000000" font-family="sans-serif" font-size="12" lengthAdjust="spacing" textLength="97" x="52.5" y="294.7539">BenefitObligation</text><rect fill="#F1F1F1" height="34.1328" rx="12.5" ry="12.5" style="stroke:#181818;stroke-width:0.5;" width="323" x="19" y="342.0068"/><text fill="#000000" font-family="sans-serif" font-size="12" lengthAdjust="spacing" textLength="303" x="29" y="363.6084">Get DefinedBenefitPlanAccumulatedBenefitObligation</text><rect fill="#FF6347" height="34.1328" rx="12.5" ry="12.5" style="stroke:#181818;stroke-width:0.5;" width="82" x="139.5" y="535.6367"/><text fill="#000000" font-family="sans-serif" font-size="12" lengthAdjust="spacing" textLength="62" x="149.5" y="557.2383">Show error</text><polygon fill="#F1F1F1" points="32,446.3838,329,446.3838,341,478.7715,329,511.1592,32,511.1592,20,478.7715,32,446.3838" style="stroke:#181818;stroke-width:0.5;"/><text fill="#000000" font-family="sans-serif" font-size="11" lengthAdjust="spacing" textLength="18" x="184.5" y="521.7939">yes</text><text fill="#000000" font-family="sans-serif" font-size="11" lengthAdjust="spacing" textLength="169" x="32" y="457.0186">DefinedBenefitPlanPensionPlans</text><text fill="#000000" font-family="sans-serif" font-size="11" lengthAdjust="spacing" textLength="191" x="41" y="469.9736">WithAccumulatedBenefitObligations</text><text fill="#000000" font-family="sans-serif" font-size="11" lengthAdjust="spacing" textLength="244" x="41" y="482.9287">InExcessOfPlanAssetsAggregateAccumulated</text><text fill="#000000" font-family="sans-serif" font-size="11" lengthAdjust="spacing" textLength="104" x="41" y="495.8838">BenefitObligation &gt;</text><text fill="#000000" font-family="sans-serif" font-size="11" lengthAdjust="spacing" textLength="261" x="68" y="508.8389">DefinedBenefitPlanAccumulatedBenefitObligation</text><text fill="#000000" font-family="sans-serif" font-size="11" lengthAdjust="spacing" textLength="14" x="341" y="476.4512">no</text><polygon fill="#F1F1F1" points="180.5,594.2471,192.5,606.2471,180.5,618.2471,168.5,606.2471,180.5,594.2471" style="stroke:#181818;stroke-width:0.5;"/><polygon fill="#F1F1F1" points="114,397.9063,247,397.9063,259,409.9063,247,421.9063,114,421.9063,102,409.9063,114,397.9063" style="stroke:#181818;stroke-width:0.5;"/><text fill="#000000" font-family="sans-serif" font-size="11" lengthAdjust="spacing" textLength="18" x="184.5" y="432.541">yes</text><text fill="#000000" font-family="sans-serif" font-size="11" lengthAdjust="spacing" textLength="133" x="114" y="414.0635">Are both values present?</text><text fill="#000000" font-family="sans-serif" font-size="11" lengthAdjust="spacing" textLength="14" x="259" y="407.5859">no</text><polygon fill="#F1F1F1" points="180.5,642.7246,192.5,654.7246,180.5,666.7246,168.5,654.7246,180.5,642.7246" style="stroke:#181818;stroke-width:0.5;"/><rect fill="#F1F1F1" height="34.1328" rx="12.5" ry="12.5" style="stroke:#181818;stroke-width:0.5;" width="124" x="460.5" y="161.6211"/><text fill="#000000" font-family="sans-serif" font-size="12" lengthAdjust="spacing" textLength="104" x="470.5" y="183.2227">Run rule 0009.41</text><rect fill="#F1F1F1" height="76.5313" rx="12.5" ry="12.5" style="stroke:#181818;stroke-width:0.5;" width="231" x="407" y="230.7539"/><text fill="#000000" font-family="sans-serif" font-size="12" lengthAdjust="spacing" textLength="206" x="417" y="252.3555">Get DefinedBenefitPlanPensionPlans</text><text fill="#000000" font-family="sans-serif" font-size="12" lengthAdjust="spacing" textLength="211" x="417" y="266.4883">WithAccumulatedBenefitObligationsIn</text><text fill="#000000" font-family="sans-serif" font-size="12" lengthAdjust="spacing" textLength="172" x="417" y="280.6211">ExcessOfPlanAssetsAggregate</text><text fill="#000000" font-family="sans-serif" font-size="12" lengthAdjust="spacing" textLength="127" x="417" y="294.7539">FairValueOfPlanAssets</text><rect fill="#F1F1F1" height="34.1328" rx="12.5" ry="12.5" style="stroke:#181818;stroke-width:0.5;" width="279" x="383" y="342.0068"/><text fill="#000000" font-family="sans-serif" font-size="12" lengthAdjust="spacing" textLength="259" x="393" y="363.6084">Get DefinedBenefitPlanFairValueOfPlanAssets</text><rect fill="#FF6347" height="34.1328" rx="12.5" ry="12.5" style="stroke:#181818;stroke-width:0.5;" width="82" x="481.5" y="535.6367"/><text fill="#000000" font-family="sans-serif" font-size="12" lengthAdjust="spacing" textLength="62" x="491.5" y="557.2383">Show error</text><polygon fill="#F1F1F1" points="389,446.3838,656,446.3838,668,478.7715,656,511.1592,389,511.1592,377,478.7715,389,446.3838" style="stroke:#181818;stroke-width:0.5;"/><text fill="#000000" font-family="sans-serif" font-size="11" lengthAdjust="spacing" textLength="18" x="526.5" y="521.7939">yes</text><text fill="#000000" font-family="sans-serif" font-size="11" lengthAdjust="spacing" textLength="169" x="389" y="457.0186">DefinedBenefitPlanPensionPlans</text><text fill="#000000" font-family="sans-serif" font-size="11" lengthAdjust="spacing" textLength="201" x="398" y="469.9736">WithAccumulatedBenefitObligationsIn</text><text fill="#000000" font-family="sans-serif" font-size="11" lengthAdjust="spacing" textLength="164" x="398" y="482.9287">ExcessOfPlanAssetsAggregate</text><text fill="#000000" font-family="sans-serif" font-size="11" lengthAdjust="spacing" textLength="132" x="398" y="495.8838">FairValueOfPlanAssets &gt;</text><text fill="#000000" font-family="sans-serif" font-size="11" lengthAdjust="spacing" textLength="219" x="437" y="508.8389">DefinedBenefitPlanFairValueOfPlanAssets</text><text fill="#000000" font-family="sans-serif" font-size="11" lengthAdjust="spacing" textLength="14" x="668" y="476.4512">no</text><polygon fill="#F1F1F1" points="522.5,594.2471,534.5,606.2471,522.5,618.2471,510.5,606.2471,522.5,594.2471" style="stroke:#181818;stroke-width:0.5;"/><polygon fill="#F1F1F1" points="456,397.9063,589,397.9063,601,409.9063,589,421.9063,456,421.9063,444,409.9063,456,397.9063" style="stroke:#181818;stroke-width:0.5;"/><text fill="#000000" font-family="sans-serif" font-size="11" lengthAdjust="spacing" textLength="18" x="526.5" y="432.541">yes</text><text fill="#000000" font-family="sans-serif" font-size="11" lengthAdjust="spacing" textLength="133" x="456" y="414.0635">Are both values present?</text><text fill="#000000" font-family="sans-serif" font-size="11" lengthAdjust="spacing" textLength="14" x="601" y="407.5859">no</text><polygon fill="#F1F1F1" points="522.5,642.7246,534.5,654.7246,522.5,666.7246,510.5,654.7246,522.5,642.7246" style="stroke:#181818;stroke-width:0.5;"/><rect fill="#F1F1F1" height="34.1328" rx="12.5" ry="12.5" style="stroke:#181818;stroke-width:0.5;" width="124" x="766.5" y="161.6211"/><text fill="#000000" font-family="sans-serif" font-size="12" lengthAdjust="spacing" textLength="104" x="776.5" y="183.2227">Run rule 0009.42</text><rect fill="#F1F1F1" height="76.5313" rx="12.5" ry="12.5" style="stroke:#181818;stroke-width:0.5;" width="226" x="715.5" y="230.7539"/><text fill="#000000" font-family="sans-serif" font-size="12" lengthAdjust="spacing" textLength="206" x="725.5" y="252.3555">Get DefinedBenefitPlanPensionPlans</text><text fill="#000000" font-family="sans-serif" font-size="12" lengthAdjust="spacing" textLength="201" x="725.5" y="266.4883">WithAccumulatedBenefitObligations</text><text fill="#000000" font-family="sans-serif" font-size="12" lengthAdjust="spacing" textLength="182" x="725.5" y="280.6211">InExcessOfPlanAssetsAggregate</text><text fill="#000000" font-family="sans-serif" font-size="12" lengthAdjust="spacing" textLength="152" x="725.5" y="294.7539">ProjectedBenefitObligation</text><rect fill="#F1F1F1" height="34.1328" rx="12.5" ry="12.5" style="stroke:#181818;stroke-width:0.5;" width="249" x="704" y="342.0068"/><text fill="#000000" font-family="sans-serif" font-size="12" lengthAdjust="spacing" textLength="229" x="714" y="363.6084">Get DefinedBenefitPlanBenefitObligation</text><rect fill="#FF6347" height="34.1328" rx="12.5" ry="12.5" style="stroke:#181818;stroke-width:0.5;" width="82" x="787.5" y="535.6367"/><text fill="#000000" font-family="sans-serif" font-size="12" lengthAdjust="spacing" textLength="62" x="797.5" y="557.2383">Show error</text><polygon fill="#F1F1F1" points="721,446.3838,936,446.3838,948,478.7715,936,511.1592,721,511.1592,709,478.7715,721,446.3838" style="stroke:#181818;stroke-width:0.5;"/><text fill="#000000" font-family="sans-serif" font-size="11" lengthAdjust="spacing" textLength="18" x="832.5" y="521.7939">yes</text><text fill="#000000" font-family="sans-serif" font-size="11" lengthAdjust="spacing" textLength="169" x="721" y="457.0186">DefinedBenefitPlanPensionPlans</text><text fill="#000000" font-family="sans-serif" font-size="11" lengthAdjust="spacing" textLength="191" x="730" y="469.9736">WithAccumulatedBenefitObligations</text><text fill="#000000" font-family="sans-serif" font-size="11" lengthAdjust="spacing" textLength="174" x="730" y="482.9287">InExcessOfPlanAssetsAggregate</text><text fill="#000000" font-family="sans-serif" font-size="11" lengthAdjust="spacing" textLength="154" x="730" y="495.8838">ProjectedBenefitObligation &gt;</text><text fill="#000000" font-family="sans-serif" font-size="11" lengthAdjust="spacing" textLength="191" x="745" y="508.8389">DefinedBenefitPlanBenefitObligation</text><text fill="#000000" font-family="sans-serif" font-size="11" lengthAdjust="spacing" textLength="14" x="948" y="476.4512">no</text><polygon fill="#F1F1F1" points="828.5,594.2471,840.5,606.2471,828.5,618.2471,816.5,606.2471,828.5,594.2471" style="stroke:#181818;stroke-width:0.5;"/><polygon fill="#F1F1F1" points="762,397.9063,895,397.9063,907,409.9063,895,421.9063,762,421.9063,750,409.9063,762,397.9063" style="stroke:#181818;stroke-width:0.5;"/><text fill="#000000" font-family="sans-serif" font-size="11" lengthAdjust="spacing" textLength="18" x="832.5" y="432.541">yes</text><text fill="#000000" font-family="sans-serif" font-size="11" lengthAdjust="spacing" textLength="133" x="762" y="414.0635">Are both values present?</text><text fill="#000000" font-family="sans-serif" font-size="11" lengthAdjust="spacing" textLength="14" x="907" y="407.5859">no</text><polygon fill="#F1F1F1" points="828.5,642.7246,840.5,654.7246,828.5,666.7246,816.5,654.7246,828.5,642.7246" style="stroke:#181818;stroke-width:0.5;"/><rect fill="#F1F1F1" height="34.1328" rx="12.5" ry="12.5" style="stroke:#181818;stroke-width:0.5;" width="124" x="1070" y="175.165"/><text fill="#000000" font-family="sans-serif" font-size="12" lengthAdjust="spacing" textLength="104" x="1080" y="196.7666">Run rule 0009.45</text><rect fill="#F1F1F1" height="48.2656" rx="12.5" ry="12.5" style="stroke:#181818;stroke-width:0.5;" width="296" x="984" y="244.2979"/><text fill="#000000" font-family="sans-serif" font-size="12" lengthAdjust="spacing" textLength="276" x="994" y="265.8994">Get DefinedBenefitPlanExpectedFutureEmployer</text><text fill="#000000" font-family="sans-serif" font-size="12" lengthAdjust="spacing" textLength="209" x="994" y="280.0322">ContributionsRemainderOfFiscalYear</text><rect fill="#F1F1F1" height="48.2656" rx="12.5" ry="12.5" style="stroke:#181818;stroke-width:0.5;" width="296" x="984" y="327.2852"/><text fill="#000000" font-family="sans-serif" font-size="12" lengthAdjust="spacing" textLength="276" x="994" y="348.8867">Get DefinedBenefitPlanExpectedFutureEmployer</text><text fill="#000000" font-family="sans-serif" font-size="12" lengthAdjust="spacing" textLength="176" x="994" y="363.0195">ContributionsCurrentFiscalYear</text><rect fill="#FF6347" height="34.1328" rx="12.5" ry="12.5" style="stroke:#181818;stroke-width:0.5;" width="82" x="1091" y="522.0928"/><text fill="#000000" font-family="sans-serif" font-size="12" lengthAdjust="spacing" textLength="62" x="1101" y="543.6943">Show error</text><polygon fill="#F1F1F1" points="1003.5,445.7949,1260.5,445.7949,1272.5,471.7051,1260.5,497.6152,1003.5,497.6152,991.5,471.7051,1003.5,445.7949" style="stroke:#181818;stroke-width:0.5;"/><text fill="#000000" font-family="sans-serif" font-size="11" lengthAdjust="spacing" textLength="18" x="1136" y="508.25">yes</text><text fill="#000000" font-family="sans-serif" font-size="11" lengthAdjust="spacing" textLength="233" x="1006.5" y="456.4297">DefinedBenefitPlanExpectedFutureEmployer</text><text fill="#000000" font-family="sans-serif" font-size="11" lengthAdjust="spacing" textLength="211" x="1012.5" y="469.3848">ContributionsRemainderOfFiscalYear &gt;</text><text fill="#000000" font-family="sans-serif" font-size="11" lengthAdjust="spacing" textLength="233" x="1027.5" y="482.3398">DefinedBenefitPlanExpectedFutureEmployer</text><text fill="#000000" font-family="sans-serif" font-size="11" lengthAdjust="spacing" textLength="171" x="1012.5" y="495.2949">ContributionsCurrentFiscalYear</text><text fill="#000000" font-family="sans-serif" font-size="11" lengthAdjust="spacing" textLength="14" x="1272.5" y="469.3848">no</text><polygon fill="#F1F1F1" points="1132,580.7031,1144,592.7031,1132,604.7031,1120,592.7031,1132,580.7031" style="stroke:#181818;stroke-width:0.5;"/><polygon fill="#F1F1F1" points="1065.5,397.3174,1198.5,397.3174,1210.5,409.3174,1198.5,421.3174,1065.5,421.3174,1053.5,409.3174,1065.5,397.3174" style="stroke:#181818;stroke-width:0.5;"/><text fill="#000000" font-family="sans-serif" font-size="11" lengthAdjust="spacing" textLength="18" x="1136" y="431.9521">yes</text><text fill="#000000" font-family="sans-serif" font-size="11" lengthAdjust="spacing" textLength="133" x="1065.5" y="413.4746">Are both values present?</text><text fill="#000000" font-family="sans-serif" font-size="11" lengthAdjust="spacing" textLength="14" x="1210.5" y="406.9971">no</text><polygon fill="#F1F1F1" points="1132,629.1807,1144,641.1807,1132,653.1807,1120,641.1807,1132,629.1807" style="stroke:#181818;stroke-width:0.5;"/><rect fill="#F1F1F1" height="34.1328" rx="12.5" ry="12.5" style="stroke:#181818;stroke-width:0.5;" width="124" x="1408" y="202.2529"/><text fill="#000000" font-family="sans-serif" font-size="12" lengthAdjust="spacing" textLength="104" x="1418" y="223.8545">Run rule 0009.46</text><rect fill="#F1F1F1" height="34.1328" rx="12.5" ry="12.5" style="stroke:#181818;stroke-width:0.5;" width="323" x="1308.5" y="271.3857"/><text fill="#000000" font-family="sans-serif" font-size="12" lengthAdjust="spacing" textLength="303" x="1318.5" y="292.9873">Get DefinedBenefitPlanAccumulatedBenefitObligation</text><rect fill="#F1F1F1" height="34.1328" rx="12.5" ry="12.5" style="stroke:#181818;stroke-width:0.5;" width="249" x="1345.5" y="340.2402"/><text fill="#000000" font-family="sans-serif" font-size="12" lengthAdjust="spacing" textLength="229" x="1355.5" y="361.8418">Get DefinedBenefitPlanBenefitObligation</text><rect fill="#FF6347" height="34.1328" rx="12.5" ry="12.5" style="stroke:#181818;stroke-width:0.5;" width="82" x="1429" y="495.0049"/><text fill="#000000" font-family="sans-serif" font-size="12" lengthAdjust="spacing" textLength="62" x="1439" y="516.6064">Show error</text><polygon fill="#F1F1F1" points="1332,444.6172,1608,444.6172,1620,457.5723,1608,470.5273,1332,470.5273,1320,457.5723,1332,444.6172" style="stroke:#181818;stroke-width:0.5;"/><text fill="#000000" font-family="sans-serif" font-size="11" lengthAdjust="spacing" textLength="18" x="1474" y="481.1621">yes</text><text fill="#000000" font-family="sans-serif" font-size="11" lengthAdjust="spacing" textLength="273" x="1332" y="455.252">DefinedBenefitPlanAccumulatedBenefitObligation &gt;</text><text fill="#000000" font-family="sans-serif" font-size="11" lengthAdjust="spacing" textLength="191" x="1362" y="468.207">DefinedBenefitPlanBenefitObligation</text><text fill="#000000" font-family="sans-serif" font-size="11" lengthAdjust="spacing" textLength="14" x="1620" y="455.252">no</text><polygon fill="#F1F1F1" points="1470,553.6152,1482,565.6152,1470,577.6152,1458,565.6152,1470,553.6152" style="stroke:#181818;stroke-width:0.5;"/><polygon fill="#F1F1F1" points="1403.5,396.1396,1536.5,396.1396,1548.5,408.1396,1536.5,420.1396,1403.5,420.1396,1391.5,408.1396,1403.5,396.1396" style="stroke:#181818;stroke-width:0.5;"/><text fill="#000000" font-family="sans-serif" font-size="11" lengthAdjust="spacing" textLength="18" x="1474" y="430.7744">yes</text><text fill="#000000" font-family="sans-serif" font-size="11" lengthAdjust="spacing" textLength="133" x="1403.5" y="412.2969">Are both values present?</text><text fill="#000000" font-family="sans-serif" font-size="11" lengthAdjust="spacing" textLength="14" x="1548.5" y="405.8193">no</text><polygon fill="#F1F1F1" points="1470,602.0928,1482,614.0928,1470,626.0928,1458,614.0928,1470,602.0928" style="stroke:#181818;stroke-width:0.5;"/><line style="stroke:#181818;stroke-width:1.5;" x1="180.5" x2="1470" y1="686.7246" y2="686.7246"/><rect fill="#F1F1F1" height="34.1328" rx="12.5" ry="12.5" style="stroke:#181818;stroke-width:0.5;" width="232" x="709.75" y="87.4883"/><text fill="#000000" font-family="sans-serif" font-size="12" lengthAdjust="spacing" textLength="208" x="723.75" y="109.0898">Go through each context in the filing</text><polygon fill="#F1F1F1" points="729.75,706.7246,921.75,706.7246,933.75,718.7246,921.75,730.7246,729.75,730.7246,717.75,718.7246,729.75,706.7246" style="stroke:#181818;stroke-width:0.5;"/><text fill="#000000" font-family="sans-serif" font-size="11" lengthAdjust="spacing" textLength="192" x="729.75" y="722.8818">Is there another context in the filing</text><text fill="#000000" font-family="sans-serif" font-size="11" lengthAdjust="spacing" textLength="18" x="933.75" y="716.4043">yes</text><ellipse cx="825.75" cy="782" fill="none" rx="10" ry="10" style="stroke:#222222;stroke-width:1.5;"/><line style="stroke:#222222;stroke-width:2.5;" x1="819.5628" x2="831.9372" y1="775.8128" y2="788.1872"/><line style="stroke:#222222;stroke-width:2.5;" x1="831.9372" x2="819.5628" y1="775.8128" y2="788.1872"/><line style="stroke:#181818;stroke-width:1.0;" x1="180.5" x2="180.5" y1="195.7539" y2="230.7539"/><polygon fill="#181818" points="176.5,220.7539,180.5,230.7539,184.5,220.7539,180.5,224.7539" style="stroke:#181818;stroke-width:1.0;"/><line style="stroke:#181818;stroke-width:1.0;" x1="180.5" x2="180.5" y1="307.2852" y2="342.0068"/><polygon fill="#181818" points="176.5,332.0068,180.5,342.0068,184.5,332.0068,180.5,336.0068" style="stroke:#181818;stroke-width:1.0;"/><line style="stroke:#181818;stroke-width:1.0;" x1="180.5" x2="180.5" y1="511.1592" y2="535.6367"/><polygon fill="#181818" points="176.5,525.6367,180.5,535.6367,184.5,525.6367,180.5,529.6367" style="stroke:#181818;stroke-width:1.0;"/><line style="stroke:#181818;stroke-width:1.0;" x1="341" x2="353" y1="478.7715" y2="478.7715"/><polygon fill="#181818" points="349,532.5093,353,542.5093,357,532.5093,353,536.5093" style="stroke:#181818;stroke-width:1.0;"/><line style="stroke:#181818;stroke-width:1.0;" x1="353" x2="353" y1="478.7715" y2="606.2471"/><line style="stroke:#181818;stroke-width:1.0;" x1="353" x2="192.5" y1="606.2471" y2="606.2471"/><polygon fill="#181818" points="202.5,602.2471,192.5,606.2471,202.5,610.2471,198.5,606.2471" style="stroke:#181818;stroke-width:1.0;"/><line style="stroke:#181818;stroke-width:1.0;" x1="180.5" x2="180.5" y1="569.7695" y2="594.2471"/><polygon fill="#181818" points="176.5,584.2471,180.5,594.2471,184.5,584.2471,180.5,588.2471" style="stroke:#181818;stroke-width:1.0;"/><line style="stroke:#181818;stroke-width:1.0;" x1="180.5" x2="180.5" y1="421.9063" y2="446.3838"/><polygon fill="#181818" points="176.5,436.3838,180.5,446.3838,184.5,436.3838,180.5,440.3838" style="stroke:#181818;stroke-width:1.0;"/><line style="stroke:#181818;stroke-width:1.0;" x1="259" x2="363" y1="409.9063" y2="409.9063"/><polygon fill="#181818" points="359,522.3154,363,532.3154,367,522.3154,363,526.3154" style="stroke:#181818;stroke-width:1.0;"/><line style="stroke:#181818;stroke-width:1.0;" x1="363" x2="363" y1="409.9063" y2="654.7246"/><line style="stroke:#181818;stroke-width:1.0;" x1="363" x2="192.5" y1="654.7246" y2="654.7246"/><polygon fill="#181818" points="202.5,650.7246,192.5,654.7246,202.5,658.7246,198.5,654.7246" style="stroke:#181818;stroke-width:1.0;"/><line style="stroke:#181818;stroke-width:1.0;" x1="180.5" x2="180.5" y1="618.2471" y2="642.7246"/><polygon fill="#181818" points="176.5,632.7246,180.5,642.7246,184.5,632.7246,180.5,636.7246" style="stroke:#181818;stroke-width:1.0;"/><line style="stroke:#181818;stroke-width:1.0;" x1="180.5" x2="180.5" y1="376.1396" y2="397.9063"/><polygon fill="#181818" points="176.5,387.9063,180.5,397.9063,184.5,387.9063,180.5,391.9063" style="stroke:#181818;stroke-width:1.0;"/><line style="stroke:#181818;stroke-width:1.0;" x1="522.5" x2="522.5" y1="195.7539" y2="230.7539"/><polygon fill="#181818" points="518.5,220.7539,522.5,230.7539,526.5,220.7539,522.5,224.7539" style="stroke:#181818;stroke-width:1.0;"/><line style="stroke:#181818;stroke-width:1.0;" x1="522.5" x2="522.5" y1="307.2852" y2="342.0068"/><polygon fill="#181818" points="518.5,332.0068,522.5,342.0068,526.5,332.0068,522.5,336.0068" style="stroke:#181818;stroke-width:1.0;"/><line style="stroke:#181818;stroke-width:1.0;" x1="522.5" x2="522.5" y1="511.1592" y2="535.6367"/><polygon fill="#181818" points="518.5,525.6367,522.5,535.6367,526.5,525.6367,522.5,529.6367" style="stroke:#181818;stroke-width:1.0;"/><line style="stroke:#181818;stroke-width:1.0;" x1="668" x2="680" y1="478.7715" y2="478.7715"/><polygon fill="#181818" points="676,532.5093,680,542.5093,684,532.5093,680,536.5093" style="stroke:#181818;stroke-width:1.0;"/><line style="stroke:#181818;stroke-width:1.0;" x1="680" x2="680" y1="478.7715" y2="606.2471"/><line style="stroke:#181818;stroke-width:1.0;" x1="680" x2="534.5" y1="606.2471" y2="606.2471"/><polygon fill="#181818" points="544.5,602.2471,534.5,606.2471,544.5,610.2471,540.5,606.2471" style="stroke:#181818;stroke-width:1.0;"/><line style="stroke:#181818;stroke-width:1.0;" x1="522.5" x2="522.5" y1="569.7695" y2="594.2471"/><polygon fill="#181818" points="518.5,584.2471,522.5,594.2471,526.5,584.2471,522.5,588.2471" style="stroke:#181818;stroke-width:1.0;"/><line style="stroke:#181818;stroke-width:1.0;" x1="522.5" x2="522.5" y1="421.9063" y2="446.3838"/><polygon fill="#181818" points="518.5,436.3838,522.5,446.3838,526.5,436.3838,522.5,440.3838" style="stroke:#181818;stroke-width:1.0;"/><line style="stroke:#181818;stroke-width:1.0;" x1="601" x2="690" y1="409.9063" y2="409.9063"/><polygon fill="#181818" points="686,522.3154,690,532.3154,694,522.3154,690,526.3154" style="stroke:#181818;stroke-width:1.0;"/><line style="stroke:#181818;stroke-width:1.0;" x1="690" x2="690" y1="409.9063" y2="654.7246"/><line style="stroke:#181818;stroke-width:1.0;" x1="690" x2="534.5" y1="654.7246" y2="654.7246"/><polygon fill="#181818" points="544.5,650.7246,534.5,654.7246,544.5,658.7246,540.5,654.7246" style="stroke:#181818;stroke-width:1.0;"/><line style="stroke:#181818;stroke-width:1.0;" x1="522.5" x2="522.5" y1="618.2471" y2="642.7246"/><polygon fill="#181818" points="518.5,632.7246,522.5,642.7246,526.5,632.7246,522.5,636.7246" style="stroke:#181818;stroke-width:1.0;"/><line style="stroke:#181818;stroke-width:1.0;" x1="522.5" x2="522.5" y1="376.1396" y2="397.9063"/><polygon fill="#181818" points="518.5,387.9063,522.5,397.9063,526.5,387.9063,522.5,391.9063" style="stroke:#181818;stroke-width:1.0;"/><line style="stroke:#181818;stroke-width:1.0;" x1="828.5" x2="828.5" y1="195.7539" y2="230.7539"/><polygon fill="#181818" points="824.5,220.7539,828.5,230.7539,832.5,220.7539,828.5,224.7539" style="stroke:#181818;stroke-width:1.0;"/><line style="stroke:#181818;stroke-width:1.0;" x1="828.5" x2="828.5" y1="307.2852" y2="342.0068"/><polygon fill="#181818" points="824.5,332.0068,828.5,342.0068,832.5,332.0068,828.5,336.0068" style="stroke:#181818;stroke-width:1.0;"/><line style="stroke:#181818;stroke-width:1.0;" x1="828.5" x2="828.5" y1="511.1592" y2="535.6367"/><polygon fill="#181818" points="824.5,525.6367,828.5,535.6367,832.5,525.6367,828.5,529.6367" style="stroke:#181818;stroke-width:1.0;"/><line style="stroke:#181818;stroke-width:1.0;" x1="948" x2="960" y1="478.7715" y2="478.7715"/><polygon fill="#181818" points="956,532.5093,960,542.5093,964,532.5093,960,536.5093" style="stroke:#181818;stroke-width:1.0;"/><line style="stroke:#181818;stroke-width:1.0;" x1="960" x2="960" y1="478.7715" y2="606.2471"/><line style="stroke:#181818;stroke-width:1.0;" x1="960" x2="840.5" y1="606.2471" y2="606.2471"/><polygon fill="#181818" points="850.5,602.2471,840.5,606.2471,850.5,610.2471,846.5,606.2471" style="stroke:#181818;stroke-width:1.0;"/><line style="stroke:#181818;stroke-width:1.0;" x1="828.5" x2="828.5" y1="569.7695" y2="594.2471"/><polygon fill="#181818" points="824.5,584.2471,828.5,594.2471,832.5,584.2471,828.5,588.2471" style="stroke:#181818;stroke-width:1.0;"/><line style="stroke:#181818;stroke-width:1.0;" x1="828.5" x2="828.5" y1="421.9063" y2="446.3838"/><polygon fill="#181818" points="824.5,436.3838,828.5,446.3838,832.5,436.3838,828.5,440.3838" style="stroke:#181818;stroke-width:1.0;"/><line style="stroke:#181818;stroke-width:1.0;" x1="907" x2="970" y1="409.9063" y2="409.9063"/><polygon fill="#181818" points="966,522.3154,970,532.3154,974,522.3154,970,526.3154" style="stroke:#181818;stroke-width:1.0;"/><line style="stroke:#181818;stroke-width:1.0;" x1="970" x2="970" y1="409.9063" y2="654.7246"/><line style="stroke:#181818;stroke-width:1.0;" x1="970" x2="840.5" y1="654.7246" y2="654.7246"/><polygon fill="#181818" points="850.5,650.7246,840.5,654.7246,850.5,658.7246,846.5,654.7246" style="stroke:#181818;stroke-width:1.0;"/><line style="stroke:#181818;stroke-width:1.0;" x1="828.5" x2="828.5" y1="618.2471" y2="642.7246"/><polygon fill="#181818" points="824.5,632.7246,828.5,642.7246,832.5,632.7246,828.5,636.7246" style="stroke:#181818;stroke-width:1.0;"/><line style="stroke:#181818;stroke-width:1.0;" x1="828.5" x2="828.5" y1="376.1396" y2="397.9063"/><polygon fill="#181818" points="824.5,387.9063,828.5,397.9063,832.5,387.9063,828.5,391.9063" style="stroke:#181818;stroke-width:1.0;"/><line style="stroke:#181818;stroke-width:1.0;" x1="1132" x2="1132" y1="209.2979" y2="244.2979"/><polygon fill="#181818" points="1128,234.2979,1132,244.2979,1136,234.2979,1132,238.2979" style="stroke:#181818;stroke-width:1.0;"/><line style="stroke:#181818;stroke-width:1.0;" x1="1132" x2="1132" y1="292.5635" y2="327.2852"/><polygon fill="#181818" points="1128,317.2852,1132,327.2852,1136,317.2852,1132,321.2852" style="stroke:#181818;stroke-width:1.0;"/><line style="stroke:#181818;stroke-width:1.0;" x1="1132" x2="1132" y1="497.6152" y2="522.0928"/><polygon fill="#181818" points="1128,512.0928,1132,522.0928,1136,512.0928,1132,516.0928" style="stroke:#181818;stroke-width:1.0;"/><line style="stroke:#181818;stroke-width:1.0;" x1="1272.5" x2="1284.5" y1="471.7051" y2="471.7051"/><polygon fill="#181818" points="1280.5,522.2041,1284.5,532.2041,1288.5,522.2041,1284.5,526.2041" style="stroke:#181818;stroke-width:1.0;"/><line style="stroke:#181818;stroke-width:1.0;" x1="1284.5" x2="1284.5" y1="471.7051" y2="592.7031"/><line style="stroke:#181818;stroke-width:1.0;" x1="1284.5" x2="1144" y1="592.7031" y2="592.7031"/><polygon fill="#181818" points="1154,588.7031,1144,592.7031,1154,596.7031,1150,592.7031" style="stroke:#181818;stroke-width:1.0;"/><line style="stroke:#181818;stroke-width:1.0;" x1="1132" x2="1132" y1="556.2256" y2="580.7031"/><polygon fill="#181818" points="1128,570.7031,1132,580.7031,1136,570.7031,1132,574.7031" style="stroke:#181818;stroke-width:1.0;"/><line style="stroke:#181818;stroke-width:1.0;" x1="1132" x2="1132" y1="421.3174" y2="445.7949"/><polygon fill="#181818" points="1128,435.7949,1132,445.7949,1136,435.7949,1132,439.7949" style="stroke:#181818;stroke-width:1.0;"/><line style="stroke:#181818;stroke-width:1.0;" x1="1210.5" x2="1294.5" y1="409.3174" y2="409.3174"/><polygon fill="#181818" points="1290.5,515.249,1294.5,525.249,1298.5,515.249,1294.5,519.249" style="stroke:#181818;stroke-width:1.0;"/><line style="stroke:#181818;stroke-width:1.0;" x1="1294.5" x2="1294.5" y1="409.3174" y2="641.1807"/><line style="stroke:#181818;stroke-width:1.0;" x1="1294.5" x2="1144" y1="641.1807" y2="641.1807"/><polygon fill="#181818" points="1154,637.1807,1144,641.1807,1154,645.1807,1150,641.1807" style="stroke:#181818;stroke-width:1.0;"/><line style="stroke:#181818;stroke-width:1.0;" x1="1132" x2="1132" y1="604.7031" y2="629.1807"/><polygon fill="#181818" points="1128,619.1807,1132,629.1807,1136,619.1807,1132,623.1807" style="stroke:#181818;stroke-width:1.0;"/><line style="stroke:#181818;stroke-width:1.0;" x1="1132" x2="1132" y1="375.5508" y2="397.3174"/><polygon fill="#181818" points="1128,387.3174,1132,397.3174,1136,387.3174,1132,391.3174" style="stroke:#181818;stroke-width:1.0;"/><line style="stroke:#181818;stroke-width:1.0;" x1="1470" x2="1470" y1="236.3857" y2="271.3857"/><polygon fill="#181818" points="1466,261.3857,1470,271.3857,1474,261.3857,1470,265.3857" style="stroke:#181818;stroke-width:1.0;"/><line style="stroke:#181818;stroke-width:1.0;" x1="1470" x2="1470" y1="305.5186" y2="340.2402"/><polygon fill="#181818" points="1466,330.2402,1470,340.2402,1474,330.2402,1470,334.2402" style="stroke:#181818;stroke-width:1.0;"/><line style="stroke:#181818;stroke-width:1.0;" x1="1470" x2="1470" y1="470.5273" y2="495.0049"/><polygon fill="#181818" points="1466,485.0049,1470,495.0049,1474,485.0049,1470,489.0049" style="stroke:#181818;stroke-width:1.0;"/><line style="stroke:#181818;stroke-width:1.0;" x1="1620" x2="1632" y1="457.5723" y2="457.5723"/><polygon fill="#181818" points="1628,501.5938,1632,511.5938,1636,501.5938,1632,505.5938" style="stroke:#181818;stroke-width:1.0;"/><line style="stroke:#181818;stroke-width:1.0;" x1="1632" x2="1632" y1="457.5723" y2="565.6152"/><line style="stroke:#181818;stroke-width:1.0;" x1="1632" x2="1482" y1="565.6152" y2="565.6152"/><polygon fill="#181818" points="1492,561.6152,1482,565.6152,1492,569.6152,1488,565.6152" style="stroke:#181818;stroke-width:1.0;"/><line style="stroke:#181818;stroke-width:1.0;" x1="1470" x2="1470" y1="529.1377" y2="553.6152"/><polygon fill="#181818" points="1466,543.6152,1470,553.6152,1474,543.6152,1470,547.6152" style="stroke:#181818;stroke-width:1.0;"/><line style="stroke:#181818;stroke-width:1.0;" x1="1470" x2="1470" y1="420.1396" y2="444.6172"/><polygon fill="#181818" points="1466,434.6172,1470,444.6172,1474,434.6172,1470,438.6172" style="stroke:#181818;stroke-width:1.0;"/><line style="stroke:#181818;stroke-width:1.0;" x1="1548.5" x2="1642" y1="408.1396" y2="408.1396"/><polygon fill="#181818" points="1638,501.1162,1642,511.1162,1646,501.1162,1642,505.1162" style="stroke:#181818;stroke-width:1.0;"/><line style="stroke:#181818;stroke-width:1.0;" x1="1642" x2="1642" y1="408.1396" y2="614.0928"/><line style="stroke:#181818;stroke-width:1.0;" x1="1642" x2="1482" y1="614.0928" y2="614.0928"/><polygon fill="#181818" points="1492,610.0928,1482,614.0928,1492,618.0928,1488,614.0928" style="stroke:#181818;stroke-width:1.0;"/><line style="stroke:#181818;stroke-width:1.0;" x1="1470" x2="1470" y1="577.6152" y2="602.0928"/><polygon fill="#181818" points="1466,592.0928,1470,602.0928,1474,592.0928,1470,596.0928" style="stroke:#181818;stroke-width:1.0;"/><line style="stroke:#181818;stroke-width:1.0;" x1="1470" x2="1470" y1="374.373" y2="396.1396"/><polygon fill="#181818" points="1466,386.1396,1470,396.1396,1474,386.1396,1470,390.1396" style="stroke:#181818;stroke-width:1.0;"/><line style="stroke:#181818;stroke-width:1.0;" x1="180.5" x2="180.5" y1="143.1211" y2="161.6211"/><polygon fill="#181818" points="176.5,151.6211,180.5,161.6211,184.5,151.6211,180.5,155.6211" style="stroke:#181818;stroke-width:1.0;"/><line style="stroke:#181818;stroke-width:1.0;" x1="522.5" x2="522.5" y1="143.1211" y2="161.6211"/><polygon fill="#181818" points="518.5,151.6211,522.5,161.6211,526.5,151.6211,522.5,155.6211" style="stroke:#181818;stroke-width:1.0;"/><line style="stroke:#181818;stroke-width:1.0;" x1="828.5" x2="828.5" y1="143.1211" y2="161.6211"/><polygon fill="#181818" points="824.5,151.6211,828.5,161.6211,832.5,151.6211,828.5,155.6211" style="stroke:#181818;stroke-width:1.0;"/><line style="stroke:#181818;stroke-width:1.0;" x1="1132" x2="1132" y1="143.1211" y2="175.165"/><polygon fill="#181818" points="1128,165.165,1132,175.165,1136,165.165,1132,169.165" style="stroke:#181818;stroke-width:1.0;"/><line style="stroke:#181818;stroke-width:1.0;" x1="1470" x2="1470" y1="143.1211" y2="202.2529"/><polygon fill="#181818" points="1466,192.2529,1470,202.2529,1474,192.2529,1470,196.2529" style="stroke:#181818;stroke-width:1.0;"/><line style="stroke:#181818;stroke-width:1.0;" x1="180.5" x2="180.5" y1="666.7246" y2="686.7246"/><polygon fill="#181818" points="176.5,676.7246,180.5,686.7246,184.5,676.7246,180.5,680.7246" style="stroke:#181818;stroke-width:1.0;"/><line style="stroke:#181818;stroke-width:1.0;" x1="522.5" x2="522.5" y1="666.7246" y2="686.7246"/><polygon fill="#181818" points="518.5,676.7246,522.5,686.7246,526.5,676.7246,522.5,680.7246" style="stroke:#181818;stroke-width:1.0;"/><line style="stroke:#181818;stroke-width:1.0;" x1="828.5" x2="828.5" y1="666.7246" y2="686.7246"/><polygon fill="#181818" points="824.5,676.7246,828.5,686.7246,832.5,676.7246,828.5,680.7246" style="stroke:#181818;stroke-width:1.0;"/><line style="stroke:#181818;stroke-width:1.0;" x1="1132" x2="1132" y1="653.1807" y2="686.7246"/><polygon fill="#181818" points="1128,676.7246,1132,686.7246,1136,676.7246,1132,680.7246" style="stroke:#181818;stroke-width:1.0;"/><line style="stroke:#181818;stroke-width:1.0;" x1="1470" x2="1470" y1="626.0928" y2="686.7246"/><polygon fill="#181818" points="1466,676.7246,1470,686.7246,1474,676.7246,1470,680.7246" style="stroke:#181818;stroke-width:1.0;"/><line style="stroke:#181818;stroke-width:1.0;" x1="825.75" x2="825.75" y1="121.6211" y2="141.6211"/><polygon fill="#181818" points="821.75,131.6211,825.75,141.6211,829.75,131.6211,825.75,135.6211" style="stroke:#181818;stroke-width:1.0;"/><line style="stroke:#181818;stroke-width:1.0;" x1="933.75" x2="1660" y1="718.7246" y2="718.7246"/><polygon fill="#181818" points="1656,414.8838,1660,404.8838,1664,414.8838,1660,410.8838" style="stroke:#181818;stroke-width:1.0;"/><line style="stroke:#181818;stroke-width:1.0;" x1="1660" x2="1660" y1="104.5547" y2="718.7246"/><line style="stroke:#181818;stroke-width:1.0;" x1="1660" x2="941.75" y1="104.5547" y2="104.5547"/><polygon fill="#181818" points="951.75,100.5547,941.75,104.5547,951.75,108.5547,947.75,104.5547" style="stroke:#181818;stroke-width:1.0;"/><line style="stroke:#181818;stroke-width:1.0;" x1="825.75" x2="825.75" y1="688.2246" y2="706.7246"/><polygon fill="#181818" points="821.75,696.7246,825.75,706.7246,829.75,696.7246,825.75,700.7246" style="stroke:#181818;stroke-width:1.0;"/><line style="stroke:#181818;stroke-width:1.0;" x1="825.75" x2="825.75" y1="67.4883" y2="87.4883"/><polygon fill="#181818" points="821.75,77.4883,825.75,87.4883,829.75,77.4883,825.75,81.4883" style="stroke:#181818;stroke-width:1.0;"/><line style="stroke:#181818;stroke-width:1.0;" x1="825.75" x2="825.75" y1="730.7246" y2="772"/><polygon fill="#181818" points="821.75,762,825.75,772,829.75,762,825.75,766" style="stroke:#181818;stroke-width:1.0;"/><text fill="#000000" font-family="sans-serif" font-size="11" lengthAdjust="spacing" textLength="14" x="829.75" y="752.1797">no</text><!--MD5=[2216b134eb04a280ce2c5bd3f3a403db]
@startuml rule_0009_db_plans
title "Rule DQC 0009 DB Plans Comparison"
!pragma useVerticalIf on
start

repeat : Go through each context in the filing;
 
 split
   :Run rule 0009.40;
   :Get DefinedBenefitPlanPensionPlans
   WithAccumulatedBenefitObligations
   InExcessOfPlanAssetsAggregateAccumulated
   BenefitObligation;
   :Get DefinedBenefitPlanAccumulatedBenefitObligation;
   if (Are both values present?) then (yes)
    if (DefinedBenefitPlanPensionPlans
   WithAccumulatedBenefitObligations
   InExcessOfPlanAssetsAggregateAccumulated
   BenefitObligation > 
            DefinedBenefitPlanAccumulatedBenefitObligation) then (yes)
        #tomato:Show error;
    else (no)
        endif
   else (no)
    endif
split again
   :Run rule 0009.41;
   :Get DefinedBenefitPlanPensionPlans
   WithAccumulatedBenefitObligationsIn
   ExcessOfPlanAssetsAggregate
   FairValueOfPlanAssets;
   :Get DefinedBenefitPlanFairValueOfPlanAssets;
   if (Are both values present?) then (yes)
        if (DefinedBenefitPlanPensionPlans
   WithAccumulatedBenefitObligationsIn
   ExcessOfPlanAssetsAggregate
   FairValueOfPlanAssets > 
                DefinedBenefitPlanFairValueOfPlanAssets) then (yes)
            #tomato:Show error;
        else (no)
        endif
    else (no)
    endif
split again
   :Run rule 0009.42;
   :Get DefinedBenefitPlanPensionPlans
   WithAccumulatedBenefitObligations
   InExcessOfPlanAssetsAggregate
   ProjectedBenefitObligation;
   :Get DefinedBenefitPlanBenefitObligation;
   if (Are both values present?) then (yes)
   if (DefinedBenefitPlanPensionPlans
   WithAccumulatedBenefitObligations
   InExcessOfPlanAssetsAggregate
   ProjectedBenefitObligation > 
        DefinedBenefitPlanBenefitObligation) then (yes)
     #tomato:Show error;
   else (no)
  endif
  else (no)
    endif
    
split again
   :Run rule 0009.45;
   :Get DefinedBenefitPlanExpectedFutureEmployer
   ContributionsRemainderOfFiscalYear;
   :Get DefinedBenefitPlanExpectedFutureEmployer
   ContributionsCurrentFiscalYear;
    if (Are both values present?) then (yes)
   if ( DefinedBenefitPlanExpectedFutureEmployer
   ContributionsRemainderOfFiscalYear > 
        DefinedBenefitPlanExpectedFutureEmployer
   ContributionsCurrentFiscalYear) then (yes)
     #tomato:Show error;
   else (no)
  endif
  else (no)
    endif

  split again
   :Run rule 0009.46;
   :Get DefinedBenefitPlanAccumulatedBenefitObligation;
   :Get DefinedBenefitPlanBenefitObligation;
  if (Are both values present?) then (yes)
    if (DefinedBenefitPlanAccumulatedBenefitObligation > 
          DefinedBenefitPlanBenefitObligation) then (yes)
      #tomato:Show error;
      else (no)
      endif
   else (no)
    endif
    
end split

    repeat while (Is there another context in the filing) is (yes)
    ->no;
    
end

@enduml

PlantUML version 1.2022.7(Mon Aug 22 13:01:30 EDT 2022)
(GPL source distribution)
Java Runtime: OpenJDK Runtime Environment
JVM: OpenJDK 64-Bit Server VM
Default Encoding: UTF-8
Language: en
Country: US
--></g></svg>