<?xml version="1.0" encoding="UTF-8" standalone="no"?><svg xmlns="http://www.w3.org/2000/svg" xmlns:xlink="http://www.w3.org/1999/xlink" contentStyleType="text/css" height="2353px" preserveAspectRatio="none" style="width:1016px;height:2353px;background:#FFFFFF;" version="1.1" viewBox="0 0 1016 2353" width="1016px" zoomAndPan="magnify"><defs/><g><rect fill="none" height="26.4883" id="_title" style="stroke:none;stroke-width:1.0;" width="160" x="426.625" y="15"/><text fill="#000000" font-family="sans-serif" font-size="14" font-weight="bold" lengthAdjust="spacing" textLength="150" x="431.625" y="33.5352">Rule DQC 117.10093</text><ellipse cx="459" cy="57.4883" fill="#222222" rx="10" ry="10" style="stroke:#222222;stroke-width:1.0;"/><rect fill="#F1F1F1" height="34.1328" rx="12.5" ry="12.5" style="stroke:#181818;stroke-width:0.5;" width="347" x="285.5" y="141.6211"/><text fill="#000000" font-family="sans-serif" font-size="12" lengthAdjust="spacing" textLength="323" x="299.5" y="163.2227">Get a list of the dimensions on the statement hypercube</text><path d="M38,241.8887 L38,420.3047 A0,0 0 0 0 38,420.3047 L343,420.3047 A0,0 0 0 0 343,420.3047 L343,335.0967 L363,331.0967 L343,327.0967 L343,251.8887 L333,241.8887 L38,241.8887 A0,0 0 0 0 38,241.8887 " fill="#FEFFDD" style="stroke:#181818;stroke-width:0.5;"/><path d="M333,241.8887 L333,251.8887 L343,251.8887 L333,241.8887 " fill="#FEFFDD" style="stroke:#181818;stroke-width:0.5;"/><text fill="#000000" font-family="sans-serif" font-size="13" lengthAdjust="spacing" textLength="175" x="44" y="259.457">StatementClassOfStockAxis</text><text fill="#000000" font-family="sans-serif" font-size="13" lengthAdjust="spacing" textLength="135" x="44" y="274.7676">ProductOrServiceAxis</text><text fill="#000000" font-family="sans-serif" font-size="13" lengthAdjust="spacing" textLength="247" x="44" y="290.0781">PropertyPlantAndEquipmentByTypeAxis</text><text fill="#000000" font-family="sans-serif" font-size="13" lengthAdjust="spacing" textLength="148" x="44" y="305.3887">LongtermDebtTypeAxis</text><text fill="#000000" font-family="sans-serif" font-size="13" lengthAdjust="spacing" textLength="277" x="44" y="320.6992">RelatedPartyTransactionsByRelatedPartyAxis</text><text fill="#000000" font-family="sans-serif" font-size="13" lengthAdjust="spacing" textLength="207" x="44" y="336.0098">StatementBusinessSegmentsAxis</text><text fill="#000000" font-family="sans-serif" font-size="13" lengthAdjust="spacing" textLength="270" x="44" y="351.3203">LimitedPartnersCapitalAccountByClassAxis</text><text fill="#000000" font-family="sans-serif" font-size="13" lengthAdjust="spacing" textLength="264" x="44" y="366.6309">PartnerTypeOfPartnersCapitalAccountAxis</text><text fill="#000000" font-family="sans-serif" font-size="13" lengthAdjust="spacing" textLength="284" x="44" y="381.9414">FiniteLivedIntangibleAssetsByMajorClassAxis</text><text fill="#000000" font-family="sans-serif" font-size="13" lengthAdjust="spacing" textLength="153" x="44" y="397.252">FinancialInstrumentAxis</text><text fill="#000000" font-family="sans-serif" font-size="13" lengthAdjust="spacing" textLength="270" x="44" y="412.5625">InformationByCategoryOfDebtSecurityAxis'</text><rect fill="#F1F1F1" height="34.1328" rx="12.5" ry="12.5" style="stroke:#181818;stroke-width:0.5;" width="192" x="363" y="314.0303"/><text fill="#000000" font-family="sans-serif" font-size="12" lengthAdjust="spacing" textLength="172" x="373" y="335.6318">Read list of target dimensions</text><rect fill="#F1F1F1" height="62.3984" rx="12.5" ry="12.5" style="stroke:#181818;stroke-width:0.5;" width="198" x="360" y="488.7822"/><text fill="#000000" font-family="sans-serif" font-size="12" lengthAdjust="spacing" textLength="152" x="370" y="510.3838">Identify if facts in the cube</text><text fill="#000000" font-family="sans-serif" font-size="12" lengthAdjust="spacing" textLength="112" x="374" y="524.5166">have 2  dimensions</text><text fill="#000000" font-family="sans-serif" font-size="12" lengthAdjust="spacing" textLength="174" x="374" y="538.6494">including the target dimension</text><rect fill="#F1F1F1" height="34.1328" rx="12.5" ry="12.5" style="stroke:#181818;stroke-width:0.5;" width="245" x="336.5" y="619.6582"/><text fill="#000000" font-family="sans-serif" font-size="12" lengthAdjust="spacing" textLength="221" x="350.5" y="641.2598">Get Members of the Target Dimension</text><rect fill="#F1F1F1" height="34.1328" rx="12.5" ry="12.5" style="stroke:#181818;stroke-width:0.5;" width="369" x="274.5" y="729.9258"/><text fill="#000000" font-family="sans-serif" font-size="12" lengthAdjust="spacing" textLength="349" x="284.5" y="751.5273">Get facts in hypercube with the member of target Dimension</text><rect fill="#F1F1F1" height="34.1328" rx="12.5" ry="12.5" style="stroke:#181818;stroke-width:0.5;" width="255" x="331.5" y="784.0586"/><text fill="#000000" font-family="sans-serif" font-size="12" lengthAdjust="spacing" textLength="235" x="341.5" y="805.6602">Put all the facts with the member in a list</text><rect fill="#F1F1F1" height="48.2656" rx="12.5" ry="12.5" style="stroke:#181818;stroke-width:0.5;" width="232" x="343" y="838.1914"/><text fill="#000000" font-family="sans-serif" font-size="12" lengthAdjust="spacing" textLength="212" x="353" y="859.793">Get the other dimension from the list</text><text fill="#000000" font-family="sans-serif" font-size="12" lengthAdjust="spacing" textLength="149" x="353" y="873.9258">(not the target dimension)</text><rect fill="#F1F1F1" height="62.3984" rx="12.5" ry="12.5" style="stroke:#181818;stroke-width:0.5;" width="305" x="306.5" y="906.457"/><text fill="#000000" font-family="sans-serif" font-size="12" lengthAdjust="spacing" textLength="264" x="316.5" y="928.0586">Get facts from hypercube with both the target</text><text fill="#000000" font-family="sans-serif" font-size="12" lengthAdjust="spacing" textLength="281" x="316.5" y="942.1914">dimension and the dimension member identified</text><text fill="#000000" font-family="sans-serif" font-size="12" lengthAdjust="spacing" textLength="226" x="316.5" y="956.3242">above that have 3 dimension members</text><rect fill="none" height="398.418" style="stroke:#000000;stroke-width:1.5;" width="645" x="76.25" y="978.8555"/><path d="M194.25,978.8555 L194.25,988.3438 L184.25,998.3438 L76.25,998.3438 " fill="none" style="stroke:#000000;stroke-width:1.5;"/><text fill="#000000" font-family="sans-serif" font-size="14" lengthAdjust="spacing" textLength="108" x="79.25" y="993.3906">SubTotal_Exists</text><rect fill="#F1F1F1" height="62.3984" rx="12.5" ry="12.5" style="stroke:#181818;stroke-width:0.5;" width="194" x="362" y="1015.3438"/><text fill="#000000" font-family="sans-serif" font-size="12" lengthAdjust="spacing" textLength="152" x="372" y="1036.9453">Identify if facts in the cube</text><text fill="#000000" font-family="sans-serif" font-size="12" lengthAdjust="spacing" textLength="158" x="372" y="1051.0781">have 3 or more dimensions</text><text fill="#000000" font-family="sans-serif" font-size="12" lengthAdjust="spacing" textLength="174" x="372" y="1065.2109">including the target dimension</text><polygon fill="#F1F1F1" points="381.5,1097.7422,536.5,1097.7422,548.5,1109.7422,536.5,1121.7422,381.5,1121.7422,369.5,1109.7422,381.5,1097.7422" style="stroke:#181818;stroke-width:0.5;"/><text fill="#000000" font-family="sans-serif" font-size="11" lengthAdjust="spacing" textLength="155" x="381.5" y="1113.8994">facts with 3 dimensions exist</text><text fill="#000000" font-family="sans-serif" font-size="11" lengthAdjust="spacing" textLength="18" x="351.5" y="1107.4219">yes</text><text fill="#000000" font-family="sans-serif" font-size="11" lengthAdjust="spacing" textLength="14" x="548.5" y="1107.4219">no</text><rect fill="#F1F1F1" height="62.3984" rx="12.5" ry="12.5" style="stroke:#181818;stroke-width:0.5;" width="248" x="176.25" y="1131.7422"/><text fill="#000000" font-family="sans-serif" font-size="12" lengthAdjust="spacing" textLength="228" x="186.25" y="1153.3438">Identify if there a subtotal for the target</text><text fill="#000000" font-family="sans-serif" font-size="12" lengthAdjust="spacing" textLength="148" x="202.25" y="1167.4766">dimension member which</text><text fill="#000000" font-family="sans-serif" font-size="12" lengthAdjust="spacing" textLength="118" x="202.25" y="1181.6094">has two dimensions?</text><polygon fill="#F1F1F1" points="244.75,1229.1406,355.75,1229.1406,367.75,1241.1406,355.75,1253.1406,244.75,1253.1406,232.75,1241.1406,244.75,1229.1406" style="stroke:#181818;stroke-width:0.5;"/><text fill="#000000" font-family="sans-serif" font-size="11" lengthAdjust="spacing" textLength="111" x="244.75" y="1245.2979">Does SubTotal Exist?</text><text fill="#000000" font-family="sans-serif" font-size="11" lengthAdjust="spacing" textLength="18" x="214.75" y="1238.8203">yes</text><text fill="#000000" font-family="sans-serif" font-size="11" lengthAdjust="spacing" textLength="14" x="367.75" y="1238.8203">no</text><rect fill="#F1F1F1" height="34.1328" rx="12.5" ry="12.5" style="stroke:#181818;stroke-width:0.5;" width="183" x="106.25" y="1263.1406"/><text fill="#000000" font-family="sans-serif" font-size="12" lengthAdjust="spacing" textLength="159" x="120.25" y="1284.7422">SubTotalExists is set to true</text><rect fill="#F1F1F1" height="34.1328" rx="12.5" ry="12.5" style="stroke:#181818;stroke-width:0.5;" width="187" x="309.25" y="1263.1406"/><text fill="#000000" font-family="sans-serif" font-size="12" lengthAdjust="spacing" textLength="163" x="323.25" y="1284.7422">SubTotalExists is set to false</text><polygon fill="#F1F1F1" points="300.25,1303.2734,312.25,1315.2734,300.25,1327.2734,288.25,1315.2734,300.25,1303.2734" style="stroke:#181818;stroke-width:0.5;"/><rect fill="#F1F1F1" height="34.1328" rx="12.5" ry="12.5" style="stroke:#181818;stroke-width:0.5;" width="183" x="526.25" y="1131.7422"/><text fill="#000000" font-family="sans-serif" font-size="12" lengthAdjust="spacing" textLength="159" x="540.25" y="1153.3438">SubTotalExists is set to true</text><polygon fill="#F1F1F1" points="459,1333.2734,471,1345.2734,459,1357.2734,447,1345.2734,459,1333.2734" style="stroke:#181818;stroke-width:0.5;"/><polygon fill="#F1F1F1" points="345.5,673.791,572.5,673.791,584.5,685.791,572.5,697.791,345.5,697.791,333.5,685.791,345.5,673.791" style="stroke:#181818;stroke-width:0.5;"/><text fill="#000000" font-family="sans-serif" font-size="11" lengthAdjust="spacing" textLength="18" x="463" y="708.4258">yes</text><text fill="#000000" font-family="sans-serif" font-size="11" lengthAdjust="spacing" textLength="227" x="345.5" y="689.9482">is there a member on the target dimension</text><text fill="#000000" font-family="sans-serif" font-size="11" lengthAdjust="spacing" textLength="14" x="319.5" y="683.4707">no</text><rect fill="#F1F1F1" height="48.2656" rx="12.5" ry="12.5" style="stroke:#181818;stroke-width:0.5;" width="69" x="731.25" y="983.4893"/><text fill="#000000" font-family="sans-serif" font-size="12" lengthAdjust="spacing" textLength="49" x="741.25" y="1005.0908">Get next</text><text fill="#000000" font-family="sans-serif" font-size="12" lengthAdjust="spacing" textLength="49" x="741.25" y="1019.2236">member</text><rect fill="#F1F1F1" height="48.2656" rx="12.5" ry="12.5" style="stroke:#181818;stroke-width:0.5;" width="202" x="358" y="1467.751"/><text fill="#000000" font-family="sans-serif" font-size="12" lengthAdjust="spacing" textLength="182" x="368" y="1489.3525">Get the member facts using the</text><text fill="#000000" font-family="sans-serif" font-size="12" lengthAdjust="spacing" textLength="168" x="368" y="1503.4854">members and domain values</text><rect fill="#F1F1F1" height="34.1328" rx="12.5" ry="12.5" style="stroke:#181818;stroke-width:0.5;" width="150" x="384" y="1584.4941"/><text fill="#000000" font-family="sans-serif" font-size="12" lengthAdjust="spacing" textLength="130" x="394" y="1606.0957">Sum the member facts</text><rect fill="#F1F1F1" height="34.1328" rx="12.5" ry="12.5" style="stroke:#181818;stroke-width:0.5;" width="242" x="338" y="1638.627"/><text fill="#000000" font-family="sans-serif" font-size="12" lengthAdjust="spacing" textLength="222" x="348" y="1660.2285">Get the minimum decimals of the facts</text><rect fill="#F1F1F1" height="34.1328" rx="12.5" ry="12.5" style="stroke:#181818;stroke-width:0.5;" width="213" x="352.5" y="1692.7598"/><text fill="#000000" font-family="sans-serif" font-size="12" lengthAdjust="spacing" textLength="193" x="362.5" y="1714.3613">Create message line for each fact</text><rect fill="#F1F1F1" height="76.5313" rx="12.5" ry="12.5" style="stroke:#181818;stroke-width:0.5;" width="281" x="318.5" y="1746.8926"/><text fill="#000000" font-family="sans-serif" font-size="12" lengthAdjust="spacing" textLength="210" x="328.5" y="1768.4941">Get the fact representing the total of</text><text fill="#000000" font-family="sans-serif" font-size="12" lengthAdjust="spacing" textLength="257" x="328.5" y="1782.627">the target dimension of the concept with one</text><text fill="#000000" font-family="sans-serif" font-size="12" lengthAdjust="spacing" textLength="231" x="328.5" y="1796.7598">dimension with durations that match the</text><text fill="#000000" font-family="sans-serif" font-size="12" lengthAdjust="spacing" textLength="243" x="328.5" y="1810.8926">document period and all instant concepts.</text><rect fill="#F1F1F1" height="34.1328" rx="12.5" ry="12.5" style="stroke:#181818;stroke-width:0.5;" width="211" x="353.5" y="1891.9014"/><text fill="#000000" font-family="sans-serif" font-size="12" lengthAdjust="spacing" textLength="191" x="363.5" y="1913.5029">Produce standard error message</text><rect fill="#F1F1F1" height="34.1328" rx="12.5" ry="12.5" style="stroke:#181818;stroke-width:0.5;" width="125" x="396.5" y="1961.0342"/><text fill="#000000" font-family="sans-serif" font-size="12" lengthAdjust="spacing" textLength="105" x="406.5" y="1982.6357">See rule message.</text><polygon fill="#F1F1F1" points="328,1843.4238,590,1843.4238,602,1855.4238,590,1867.4238,328,1867.4238,316,1855.4238,328,1843.4238" style="stroke:#181818;stroke-width:0.5;"/><text fill="#000000" font-family="sans-serif" font-size="11" lengthAdjust="spacing" textLength="18" x="463" y="1878.0586">yes</text><text fill="#000000" font-family="sans-serif" font-size="11" lengthAdjust="spacing" textLength="262" x="328" y="1859.5811">Is the sum of members not equal to TotalDefault?</text><text fill="#000000" font-family="sans-serif" font-size="11" lengthAdjust="spacing" textLength="14" x="602" y="1853.1035">no</text><polygon fill="#F1F1F1" points="459,2015.167,471,2027.167,459,2039.167,447,2027.167,459,2015.167" style="stroke:#181818;stroke-width:0.5;"/><polygon fill="#F1F1F1" points="407,1536.0166,511,1536.0166,523,1548.0166,511,1560.0166,407,1560.0166,395,1548.0166,407,1536.0166" style="stroke:#181818;stroke-width:0.5;"/><text fill="#000000" font-family="sans-serif" font-size="11" lengthAdjust="spacing" textLength="18" x="463" y="1570.6514">yes</text><text fill="#000000" font-family="sans-serif" font-size="11" lengthAdjust="spacing" textLength="104" x="407" y="1552.1738">Were facts present?</text><text fill="#000000" font-family="sans-serif" font-size="11" lengthAdjust="spacing" textLength="14" x="523" y="1545.6963">no</text><polygon fill="#F1F1F1" points="459,2059.167,471,2071.167,459,2083.167,447,2071.167,459,2059.167" style="stroke:#181818;stroke-width:0.5;"/><polygon fill="#F1F1F1" points="354.5,1419.2734,563.5,1419.2734,575.5,1431.2734,563.5,1443.2734,354.5,1443.2734,342.5,1431.2734,354.5,1419.2734" style="stroke:#181818;stroke-width:0.5;"/><text fill="#000000" font-family="sans-serif" font-size="11" lengthAdjust="spacing" textLength="18" x="463" y="1453.9082">yes</text><text fill="#000000" font-family="sans-serif" font-size="11" lengthAdjust="spacing" textLength="209" x="354.5" y="1435.4307">Does Subtotal for multi facts equal true</text><text fill="#000000" font-family="sans-serif" font-size="11" lengthAdjust="spacing" textLength="14" x="575.5" y="1428.9531">no</text><polygon fill="#F1F1F1" points="459,2103.167,471,2115.167,459,2127.167,447,2115.167,459,2103.167" style="stroke:#181818;stroke-width:0.5;"/><polygon fill="#F1F1F1" points="298,571.1807,620,571.1807,632,583.1807,620,595.1807,298,595.1807,286,583.1807,298,571.1807" style="stroke:#181818;stroke-width:0.5;"/><text fill="#000000" font-family="sans-serif" font-size="11" lengthAdjust="spacing" textLength="18" x="463" y="605.8154">yes</text><text fill="#000000" font-family="sans-serif" font-size="11" lengthAdjust="spacing" textLength="322" x="298" y="587.3379">facts with 2 dimensions including the target dimension exist</text><text fill="#000000" font-family="sans-serif" font-size="11" lengthAdjust="spacing" textLength="14" x="632" y="580.8604">no</text><polygon fill="#F1F1F1" points="459,2147.167,471,2159.167,459,2171.167,447,2159.167,459,2147.167" style="stroke:#181818;stroke-width:0.5;"/><polygon fill="#F1F1F1" points="317.5,440.3047,600.5,440.3047,612.5,452.3047,600.5,464.3047,317.5,464.3047,305.5,452.3047,317.5,440.3047" style="stroke:#181818;stroke-width:0.5;"/><text fill="#000000" font-family="sans-serif" font-size="11" lengthAdjust="spacing" textLength="18" x="463" y="474.9395">yes</text><text fill="#000000" font-family="sans-serif" font-size="11" lengthAdjust="spacing" textLength="283" x="317.5" y="456.4619">Is the dimension a target dimension to be calculated?</text><text fill="#000000" font-family="sans-serif" font-size="11" lengthAdjust="spacing" textLength="14" x="612.5" y="449.9844">no</text><polygon fill="#F1F1F1" points="459,2191.167,471,2203.167,459,2215.167,447,2203.167,459,2191.167" style="stroke:#181818;stroke-width:0.5;"/><polygon fill="#F1F1F1" points="318,195.7539,600,195.7539,612,207.7539,600,219.7539,318,219.7539,306,207.7539,318,195.7539" style="stroke:#181818;stroke-width:0.5;"/><text fill="#000000" font-family="sans-serif" font-size="11" lengthAdjust="spacing" textLength="18" x="463" y="230.3887">yes</text><text fill="#000000" font-family="sans-serif" font-size="11" lengthAdjust="spacing" textLength="282" x="318" y="211.9111">Is there a dmension left to process on the hypercube</text><text fill="#000000" font-family="sans-serif" font-size="11" lengthAdjust="spacing" textLength="14" x="292" y="205.4336">no</text><rect fill="#F1F1F1" height="34.1328" rx="12.5" ry="12.5" style="stroke:#181818;stroke-width:0.5;" width="136" x="842.25" y="1182.7676"/><text fill="#000000" font-family="sans-serif" font-size="12" lengthAdjust="spacing" textLength="112" x="856.25" y="1204.3691">Get next dimension</text><rect fill="#F1F1F1" height="34.1328" rx="12.5" ry="12.5" style="stroke:#181818;stroke-width:0.5;" width="266" x="326" y="87.4883"/><text fill="#000000" font-family="sans-serif" font-size="12" lengthAdjust="spacing" textLength="242" x="340" y="109.0898">Get next statement hypercube in the filing</text><polygon fill="#F1F1F1" points="355,2257.167,563,2257.167,575,2269.167,563,2281.167,355,2281.167,343,2269.167,355,2257.167" style="stroke:#181818;stroke-width:0.5;"/><text fill="#000000" font-family="sans-serif" font-size="11" lengthAdjust="spacing" textLength="208" x="355" y="2273.3242">Is there another hypercube in the filing</text><text fill="#000000" font-family="sans-serif" font-size="11" lengthAdjust="spacing" textLength="18" x="575" y="2266.8467">yes</text><ellipse cx="459" cy="2332.4424" fill="none" rx="10" ry="10" style="stroke:#222222;stroke-width:1.5;"/><line style="stroke:#222222;stroke-width:2.5;" x1="452.8128" x2="465.1872" y1="2326.2552" y2="2338.6296"/><line style="stroke:#222222;stroke-width:2.5;" x1="465.1872" x2="452.8128" y1="2326.2552" y2="2338.6296"/><line style="stroke:#181818;stroke-width:1.0;" x1="459" x2="459" y1="764.0586" y2="784.0586"/><polygon fill="#181818" points="455,774.0586,459,784.0586,463,774.0586,459,778.0586" style="stroke:#181818;stroke-width:1.0;"/><line style="stroke:#181818;stroke-width:1.0;" x1="459" x2="459" y1="818.1914" y2="838.1914"/><polygon fill="#181818" points="455,828.1914,459,838.1914,463,828.1914,459,832.1914" style="stroke:#181818;stroke-width:1.0;"/><line style="stroke:#181818;stroke-width:1.0;" x1="459" x2="459" y1="886.457" y2="906.457"/><polygon fill="#181818" points="455,896.457,459,906.457,463,896.457,459,900.457" style="stroke:#181818;stroke-width:1.0;"/><line style="stroke:#181818;stroke-width:1.0;" x1="232.75" x2="197.75" y1="1241.1406" y2="1241.1406"/><line style="stroke:#181818;stroke-width:1.0;" x1="197.75" x2="197.75" y1="1241.1406" y2="1263.1406"/><polygon fill="#181818" points="193.75,1253.1406,197.75,1263.1406,201.75,1253.1406,197.75,1257.1406" style="stroke:#181818;stroke-width:1.0;"/><line style="stroke:#181818;stroke-width:1.0;" x1="367.75" x2="402.75" y1="1241.1406" y2="1241.1406"/><line style="stroke:#181818;stroke-width:1.0;" x1="402.75" x2="402.75" y1="1241.1406" y2="1263.1406"/><polygon fill="#181818" points="398.75,1253.1406,402.75,1263.1406,406.75,1253.1406,402.75,1257.1406" style="stroke:#181818;stroke-width:1.0;"/><line style="stroke:#181818;stroke-width:1.0;" x1="197.75" x2="197.75" y1="1297.2734" y2="1315.2734"/><line style="stroke:#181818;stroke-width:1.0;" x1="197.75" x2="288.25" y1="1315.2734" y2="1315.2734"/><polygon fill="#181818" points="278.25,1311.2734,288.25,1315.2734,278.25,1319.2734,282.25,1315.2734" style="stroke:#181818;stroke-width:1.0;"/><line style="stroke:#181818;stroke-width:1.0;" x1="402.75" x2="402.75" y1="1297.2734" y2="1315.2734"/><line style="stroke:#181818;stroke-width:1.0;" x1="402.75" x2="312.25" y1="1315.2734" y2="1315.2734"/><polygon fill="#181818" points="322.25,1311.2734,312.25,1315.2734,322.25,1319.2734,318.25,1315.2734" style="stroke:#181818;stroke-width:1.0;"/><line style="stroke:#181818;stroke-width:1.0;" x1="300.25" x2="300.25" y1="1194.1406" y2="1229.1406"/><polygon fill="#181818" points="296.25,1219.1406,300.25,1229.1406,304.25,1219.1406,300.25,1223.1406" style="stroke:#181818;stroke-width:1.0;"/><line style="stroke:#181818;stroke-width:1.0;" x1="369.5" x2="300.25" y1="1109.7422" y2="1109.7422"/><line style="stroke:#181818;stroke-width:1.0;" x1="300.25" x2="300.25" y1="1109.7422" y2="1131.7422"/><polygon fill="#181818" points="296.25,1121.7422,300.25,1131.7422,304.25,1121.7422,300.25,1125.7422" style="stroke:#181818;stroke-width:1.0;"/><line style="stroke:#181818;stroke-width:1.0;" x1="548.5" x2="617.75" y1="1109.7422" y2="1109.7422"/><line style="stroke:#181818;stroke-width:1.0;" x1="617.75" x2="617.75" y1="1109.7422" y2="1131.7422"/><polygon fill="#181818" points="613.75,1121.7422,617.75,1131.7422,621.75,1121.7422,617.75,1125.7422" style="stroke:#181818;stroke-width:1.0;"/><line style="stroke:#181818;stroke-width:1.0;" x1="300.25" x2="300.25" y1="1327.2734" y2="1345.2734"/><line style="stroke:#181818;stroke-width:1.0;" x1="300.25" x2="447" y1="1345.2734" y2="1345.2734"/><polygon fill="#181818" points="437,1341.2734,447,1345.2734,437,1349.2734,441,1345.2734" style="stroke:#181818;stroke-width:1.0;"/><line style="stroke:#181818;stroke-width:1.0;" x1="617.75" x2="617.75" y1="1165.875" y2="1345.2734"/><line style="stroke:#181818;stroke-width:1.0;" x1="617.75" x2="471" y1="1345.2734" y2="1345.2734"/><polygon fill="#181818" points="481,1341.2734,471,1345.2734,481,1349.2734,477,1345.2734" style="stroke:#181818;stroke-width:1.0;"/><line style="stroke:#181818;stroke-width:1.0;" x1="459" x2="459" y1="1077.7422" y2="1097.7422"/><polygon fill="#181818" points="455,1087.7422,459,1097.7422,463,1087.7422,459,1091.7422" style="stroke:#181818;stroke-width:1.0;"/><line style="stroke:#181818;stroke-width:1.0;" x1="459" x2="459" y1="968.8555" y2="1015.3438"/><polygon fill="#181818" points="455,1005.3438,459,1015.3438,463,1005.3438,459,1009.3438" style="stroke:#181818;stroke-width:1.0;"/><line style="stroke:#181818;stroke-width:1.0;" x1="459" x2="459" y1="697.791" y2="729.9258"/><polygon fill="#181818" points="455,719.9258,459,729.9258,463,719.9258,459,723.9258" style="stroke:#181818;stroke-width:1.0;"/><line style="stroke:#181818;stroke-width:1.0;" x1="459" x2="459" y1="1357.2734" y2="1387.2734"/><line style="stroke:#181818;stroke-width:1.0;" x1="459" x2="765.75" y1="1387.2734" y2="1387.2734"/><line style="stroke:#181818;stroke-width:1.0;" x1="765.75" x2="765.75" y1="1031.7549" y2="1387.2734"/><polygon fill="#181818" points="761.75,1041.7549,765.75,1031.7549,769.75,1041.7549,765.75,1037.7549" style="stroke:#181818;stroke-width:1.0;"/><line style="stroke:#181818;stroke-width:1.0;" x1="765.75" x2="765.75" y1="685.791" y2="983.4893"/><line style="stroke:#181818;stroke-width:1.0;" x1="765.75" x2="584.5" y1="685.791" y2="685.791"/><polygon fill="#181818" points="594.5,681.791,584.5,685.791,594.5,689.791,590.5,685.791" style="stroke:#181818;stroke-width:1.0;"/><line style="stroke:#181818;stroke-width:1.0;" x1="333.5" x2="64.25" y1="685.791" y2="685.791"/><polygon fill="#181818" points="60.25,1003.6221,64.25,1013.6221,68.25,1003.6221,64.25,1007.6221" style="stroke:#181818;stroke-width:1.0;"/><line style="stroke:#181818;stroke-width:1.0;" x1="64.25" x2="64.25" y1="685.791" y2="1399.2734"/><line style="stroke:#181818;stroke-width:1.0;" x1="64.25" x2="459" y1="1399.2734" y2="1399.2734"/><line style="stroke:#181818;stroke-width:1.0;" x1="459" x2="459" y1="1399.2734" y2="1419.2734"/><polygon fill="#181818" points="455,1409.2734,459,1419.2734,463,1409.2734,459,1413.2734" style="stroke:#181818;stroke-width:1.0;"/><line style="stroke:#181818;stroke-width:1.0;" x1="459" x2="459" y1="653.791" y2="673.791"/><polygon fill="#181818" points="455,663.791,459,673.791,463,663.791,459,667.791" style="stroke:#181818;stroke-width:1.0;"/><line style="stroke:#181818;stroke-width:1.0;" x1="459" x2="459" y1="1618.627" y2="1638.627"/><polygon fill="#181818" points="455,1628.627,459,1638.627,463,1628.627,459,1632.627" style="stroke:#181818;stroke-width:1.0;"/><line style="stroke:#181818;stroke-width:1.0;" x1="459" x2="459" y1="1672.7598" y2="1692.7598"/><polygon fill="#181818" points="455,1682.7598,459,1692.7598,463,1682.7598,459,1686.7598" style="stroke:#181818;stroke-width:1.0;"/><line style="stroke:#181818;stroke-width:1.0;" x1="459" x2="459" y1="1726.8926" y2="1746.8926"/><polygon fill="#181818" points="455,1736.8926,459,1746.8926,463,1736.8926,459,1740.8926" style="stroke:#181818;stroke-width:1.0;"/><line style="stroke:#181818;stroke-width:1.0;" x1="459" x2="459" y1="1926.0342" y2="1961.0342"/><polygon fill="#181818" points="455,1951.0342,459,1961.0342,463,1951.0342,459,1955.0342" style="stroke:#181818;stroke-width:1.0;"/><line style="stroke:#181818;stroke-width:1.0;" x1="459" x2="459" y1="1867.4238" y2="1891.9014"/><polygon fill="#181818" points="455,1881.9014,459,1891.9014,463,1881.9014,459,1885.9014" style="stroke:#181818;stroke-width:1.0;"/><line style="stroke:#181818;stroke-width:1.0;" x1="602" x2="614" y1="1855.4238" y2="1855.4238"/><polygon fill="#181818" points="610,1933.5342,614,1943.5342,618,1933.5342,614,1937.5342" style="stroke:#181818;stroke-width:1.0;"/><line style="stroke:#181818;stroke-width:1.0;" x1="614" x2="614" y1="1855.4238" y2="2027.167"/><line style="stroke:#181818;stroke-width:1.0;" x1="614" x2="471" y1="2027.167" y2="2027.167"/><polygon fill="#181818" points="481,2023.167,471,2027.167,481,2031.167,477,2027.167" style="stroke:#181818;stroke-width:1.0;"/><line style="stroke:#181818;stroke-width:1.0;" x1="459" x2="459" y1="1995.167" y2="2015.167"/><polygon fill="#181818" points="455,2005.167,459,2015.167,463,2005.167,459,2009.167" style="stroke:#181818;stroke-width:1.0;"/><line style="stroke:#181818;stroke-width:1.0;" x1="459" x2="459" y1="1823.4238" y2="1843.4238"/><polygon fill="#181818" points="455,1833.4238,459,1843.4238,463,1833.4238,459,1837.4238" style="stroke:#181818;stroke-width:1.0;"/><line style="stroke:#181818;stroke-width:1.0;" x1="459" x2="459" y1="1560.0166" y2="1584.4941"/><polygon fill="#181818" points="455,1574.4941,459,1584.4941,463,1574.4941,459,1578.4941" style="stroke:#181818;stroke-width:1.0;"/><line style="stroke:#181818;stroke-width:1.0;" x1="523" x2="624" y1="1548.0166" y2="1548.0166"/><polygon fill="#181818" points="620,1789.0693,624,1799.0693,628,1789.0693,624,1793.0693" style="stroke:#181818;stroke-width:1.0;"/><line style="stroke:#181818;stroke-width:1.0;" x1="624" x2="624" y1="1548.0166" y2="2071.167"/><line style="stroke:#181818;stroke-width:1.0;" x1="624" x2="471" y1="2071.167" y2="2071.167"/><polygon fill="#181818" points="481,2067.167,471,2071.167,481,2075.167,477,2071.167" style="stroke:#181818;stroke-width:1.0;"/><line style="stroke:#181818;stroke-width:1.0;" x1="459" x2="459" y1="2039.167" y2="2059.167"/><polygon fill="#181818" points="455,2049.167,459,2059.167,463,2049.167,459,2053.167" style="stroke:#181818;stroke-width:1.0;"/><line style="stroke:#181818;stroke-width:1.0;" x1="459" x2="459" y1="1516.0166" y2="1536.0166"/><polygon fill="#181818" points="455,1526.0166,459,1536.0166,463,1526.0166,459,1530.0166" style="stroke:#181818;stroke-width:1.0;"/><line style="stroke:#181818;stroke-width:1.0;" x1="459" x2="459" y1="1443.2734" y2="1467.751"/><polygon fill="#181818" points="455,1457.751,459,1467.751,463,1457.751,459,1461.751" style="stroke:#181818;stroke-width:1.0;"/><line style="stroke:#181818;stroke-width:1.0;" x1="575.5" x2="646" y1="1431.2734" y2="1431.2734"/><polygon fill="#181818" points="642,1747.4365,646,1757.4365,650,1747.4365,646,1751.4365" style="stroke:#181818;stroke-width:1.0;"/><line style="stroke:#181818;stroke-width:1.0;" x1="646" x2="646" y1="1431.2734" y2="2115.167"/><line style="stroke:#181818;stroke-width:1.0;" x1="646" x2="471" y1="2115.167" y2="2115.167"/><polygon fill="#181818" points="481,2111.167,471,2115.167,481,2119.167,477,2115.167" style="stroke:#181818;stroke-width:1.0;"/><line style="stroke:#181818;stroke-width:1.0;" x1="459" x2="459" y1="2083.167" y2="2103.167"/><polygon fill="#181818" points="455,2093.167,459,2103.167,463,2093.167,459,2097.167" style="stroke:#181818;stroke-width:1.0;"/><line style="stroke:#181818;stroke-width:1.0;" x1="459" x2="459" y1="595.1807" y2="619.6582"/><polygon fill="#181818" points="455,609.6582,459,619.6582,463,609.6582,459,613.6582" style="stroke:#181818;stroke-width:1.0;"/><line style="stroke:#181818;stroke-width:1.0;" x1="632" x2="810.25" y1="583.1807" y2="583.1807"/><polygon fill="#181818" points="806.25,1363.7188,810.25,1373.7188,814.25,1363.7188,810.25,1367.7188" style="stroke:#181818;stroke-width:1.0;"/><line style="stroke:#181818;stroke-width:1.0;" x1="810.25" x2="810.25" y1="583.1807" y2="2159.167"/><line style="stroke:#181818;stroke-width:1.0;" x1="810.25" x2="471" y1="2159.167" y2="2159.167"/><polygon fill="#181818" points="481,2155.167,471,2159.167,481,2163.167,477,2159.167" style="stroke:#181818;stroke-width:1.0;"/><line style="stroke:#181818;stroke-width:1.0;" x1="459" x2="459" y1="2127.167" y2="2147.167"/><polygon fill="#181818" points="455,2137.167,459,2147.167,463,2137.167,459,2141.167" style="stroke:#181818;stroke-width:1.0;"/><line style="stroke:#181818;stroke-width:1.0;" x1="459" x2="459" y1="551.1807" y2="571.1807"/><polygon fill="#181818" points="455,561.1807,459,571.1807,463,561.1807,459,565.1807" style="stroke:#181818;stroke-width:1.0;"/><line style="stroke:#181818;stroke-width:1.0;" x1="459" x2="459" y1="464.3047" y2="488.7822"/><polygon fill="#181818" points="455,478.7822,459,488.7822,463,478.7822,459,482.7822" style="stroke:#181818;stroke-width:1.0;"/><line style="stroke:#181818;stroke-width:1.0;" x1="612.5" x2="828.25" y1="452.3047" y2="452.3047"/><polygon fill="#181818" points="824.25,1315.0195,828.25,1325.0195,832.25,1315.0195,828.25,1319.0195" style="stroke:#181818;stroke-width:1.0;"/><line style="stroke:#181818;stroke-width:1.0;" x1="828.25" x2="828.25" y1="452.3047" y2="2203.167"/><line style="stroke:#181818;stroke-width:1.0;" x1="828.25" x2="471" y1="2203.167" y2="2203.167"/><polygon fill="#181818" points="481,2199.167,471,2203.167,481,2207.167,477,2203.167" style="stroke:#181818;stroke-width:1.0;"/><line style="stroke:#181818;stroke-width:1.0;" x1="459" x2="459" y1="2171.167" y2="2191.167"/><polygon fill="#181818" points="455,2181.167,459,2191.167,463,2181.167,459,2185.167" style="stroke:#181818;stroke-width:1.0;"/><line style="stroke:#181818;stroke-width:1.0;" x1="459" x2="459" y1="348.1631" y2="440.3047"/><polygon fill="#181818" points="455,430.3047,459,440.3047,463,430.3047,459,434.3047" style="stroke:#181818;stroke-width:1.0;"/><line style="stroke:#181818;stroke-width:1.0;" x1="459" x2="459" y1="219.7539" y2="314.0303"/><polygon fill="#181818" points="455,304.0303,459,314.0303,463,304.0303,459,308.0303" style="stroke:#181818;stroke-width:1.0;"/><line style="stroke:#181818;stroke-width:1.0;" x1="459" x2="459" y1="2215.167" y2="2225.167"/><line style="stroke:#181818;stroke-width:1.0;" x1="459" x2="910.25" y1="2225.167" y2="2225.167"/><line style="stroke:#181818;stroke-width:1.0;" x1="910.25" x2="910.25" y1="1216.9004" y2="2225.167"/><polygon fill="#181818" points="906.25,1226.9004,910.25,1216.9004,914.25,1226.9004,910.25,1222.9004" style="stroke:#181818;stroke-width:1.0;"/><line style="stroke:#181818;stroke-width:1.0;" x1="910.25" x2="910.25" y1="207.7539" y2="1182.7676"/><line style="stroke:#181818;stroke-width:1.0;" x1="910.25" x2="612" y1="207.7539" y2="207.7539"/><polygon fill="#181818" points="622,203.7539,612,207.7539,622,211.7539,618,207.7539" style="stroke:#181818;stroke-width:1.0;"/><line style="stroke:#181818;stroke-width:1.0;" x1="306" x2="24" y1="207.7539" y2="207.7539"/><polygon fill="#181818" points="20,1195.834,24,1205.834,28,1195.834,24,1199.834" style="stroke:#181818;stroke-width:1.0;"/><line style="stroke:#181818;stroke-width:1.0;" x1="24" x2="24" y1="207.7539" y2="2237.167"/><line style="stroke:#181818;stroke-width:1.0;" x1="24" x2="459" y1="2237.167" y2="2237.167"/><line style="stroke:#181818;stroke-width:1.0;" x1="459" x2="459" y1="2237.167" y2="2257.167"/><polygon fill="#181818" points="455,2247.167,459,2257.167,463,2247.167,459,2251.167" style="stroke:#181818;stroke-width:1.0;"/><line style="stroke:#181818;stroke-width:1.0;" x1="459" x2="459" y1="175.7539" y2="195.7539"/><polygon fill="#181818" points="455,185.7539,459,195.7539,463,185.7539,459,189.7539" style="stroke:#181818;stroke-width:1.0;"/><line style="stroke:#181818;stroke-width:1.0;" x1="459" x2="459" y1="121.6211" y2="141.6211"/><polygon fill="#181818" points="455,131.6211,459,141.6211,463,131.6211,459,135.6211" style="stroke:#181818;stroke-width:1.0;"/><line style="stroke:#181818;stroke-width:1.0;" x1="575" x2="990.25" y1="2269.167" y2="2269.167"/><polygon fill="#181818" points="986.25,1172.7344,990.25,1162.7344,994.25,1172.7344,990.25,1168.7344" style="stroke:#181818;stroke-width:1.0;"/><line style="stroke:#181818;stroke-width:1.0;" x1="990.25" x2="990.25" y1="104.5547" y2="2269.167"/><line style="stroke:#181818;stroke-width:1.0;" x1="990.25" x2="592" y1="104.5547" y2="104.5547"/><polygon fill="#181818" points="602,100.5547,592,104.5547,602,108.5547,598,104.5547" style="stroke:#181818;stroke-width:1.0;"/><line style="stroke:#181818;stroke-width:1.0;" x1="459" x2="459" y1="67.4883" y2="87.4883"/><polygon fill="#181818" points="455,77.4883,459,87.4883,463,77.4883,459,81.4883" style="stroke:#181818;stroke-width:1.0;"/><line style="stroke:#181818;stroke-width:1.0;" x1="459" x2="459" y1="2281.167" y2="2322.4424"/><polygon fill="#181818" points="455,2312.4424,459,2322.4424,463,2312.4424,459,2316.4424" style="stroke:#181818;stroke-width:1.0;"/><text fill="#000000" font-family="sans-serif" font-size="11" lengthAdjust="spacing" textLength="14" x="463" y="2302.6221">no</text><!--MD5=[f8c2f2fee161dcac1b25042f800a4254]
@startuml rule_0117_10093
title "Rule DQC 117.10093"
!pragma useVerticalIf on
start

repeat : Get next statement hypercube in the filing;
 
 : Get a list of the dimensions on the statement hypercube;
while (Is there a dmension left to process on the hypercube) is (yes)

    :Read list of target dimensions;
    note left
    StatementClassOfStockAxis
    ProductOrServiceAxis
    PropertyPlantAndEquipmentByTypeAxis
    LongtermDebtTypeAxis
    RelatedPartyTransactionsByRelatedPartyAxis
    StatementBusinessSegmentsAxis
    LimitedPartnersCapitalAccountByClassAxis
    PartnerTypeOfPartnersCapitalAccountAxis
    FiniteLivedIntangibleAssetsByMajorClassAxis
    FinancialInstrumentAxis
    InformationByCategoryOfDebtSecurityAxis'
    end note
 if (Is the dimension a target dimension to be calculated?) then (yes)
    
    
     :Identify if facts in the cube
      have 2  dimensions 
      including the target dimension;
      if (facts with 2 dimensions including the target dimension exist) then (yes)
       : Get Members of the Target Dimension;
       while (is there a member on the target dimension) is (yes)
            :Get facts in hypercube with the member of target Dimension;
            :Put all the facts with the member in a list;
            :Get the other dimension from the list
            (not the target dimension);
            :Get facts from hypercube with both the target
            dimension and the dimension member identified 
            above that have 3 dimension members;
             group SubTotal_Exists
                :Identify if facts in the cube
                have 3 or more dimensions 
                including the target dimension;
                if (facts with 3 dimensions exist) then (yes)
                
                :Identify if there a subtotal for the target 
                    dimension member which 
                    has two dimensions?;
                        if (Does SubTotal Exist?) then (yes)
                            : SubTotalExists is set to true;
                        else (no)
                            : SubTotalExists is set to false;
                            endif
                else (no)
                    : SubTotalExists is set to true;
                endif
    
            end group
        backward: Get next 
        member;
       end while (no)
    
   
     if (Does Subtotal for multi facts equal true) then (yes)
        :Get the member facts using the 
        members and domain values;
            if (Were facts present?) then (yes)
                :Sum the member facts;
                :Get the minimum decimals of the facts;
                :Create message line for each fact;
                :Get the fact representing the total of 
                the target dimension of the concept with one 
                dimension with durations that match the 
                document period and all instant concepts.;
                 if (Is the sum of members not equal to TotalDefault?) then (yes)
                                        :Produce standard error message;
                                        :See rule message.;
                                else (no)
                                    endif
             else (no)
            endif
        else (no)
            endif
    else (no)
        
    endif
     
 else (no)
    endif 
    backward: Get next dimension;
endwhile  (no)
    repeat while (Is there another hypercube in the filing) is (yes)
    ->no;
    
end

@enduml

PlantUML version 1.2022.7(Mon Aug 22 13:01:30 EDT 2022)
(GPL source distribution)
Java Runtime: OpenJDK Runtime Environment
JVM: OpenJDK 64-Bit Server VM
Default Encoding: UTF-8
Language: en
Country: US
--></g></svg>